<?xml version="1.0" encoding="utf-8" standalone="no"?>
<!DOCTYPE svg PUBLIC "-//W3C//DTD SVG 1.1//EN"
  "http://www.w3.org/Graphics/SVG/1.1/DTD/svg11.dtd">
<svg xmlns:xlink="http://www.w3.org/1999/xlink" width="460.8pt" height="345.6pt" viewBox="0 0 460.8 345.6" xmlns="http://www.w3.org/2000/svg" version="1.1">
 <metadata>
  <rdf:RDF xmlns:dc="http://purl.org/dc/elements/1.1/" xmlns:cc="http://creativecommons.org/ns#" xmlns:rdf="http://www.w3.org/1999/02/22-rdf-syntax-ns#">
   <cc:Work>
    <dc:type rdf:resource="http://purl.org/dc/dcmitype/StillImage"/>
    <dc:date>2023-02-21T02:54:54.931148</dc:date>
    <dc:format>image/svg+xml</dc:format>
    <dc:creator>
     <cc:Agent>
      <dc:title>Matplotlib v3.6.3, https://matplotlib.org/</dc:title>
     </cc:Agent>
    </dc:creator>
   </cc:Work>
  </rdf:RDF>
 </metadata>
 <defs>
  <style type="text/css">*{stroke-linejoin: round; stroke-linecap: butt}</style>
 </defs>
 <g id="figure_1">
  <g id="patch_1">
   <path d="M 0 345.6 
L 460.8 345.6 
L 460.8 0 
L 0 0 
z
" style="fill: #ffffff"/>
  </g>
  <g id="axes_1">
   <g id="patch_2">
    <path d="M 64.175 135.34 
L 212.835 135.34 
L 212.835 40.92 
L 64.175 40.92 
z
" style="fill: #ffffff"/>
   </g>
   <g id="matplotlib.axis_1">
    <g id="xtick_1">
     <g id="line2d_1">
      <defs>
       <path id="mb8a47ee9e5" d="M 0 0 
L 0 3.5 
" style="stroke: #000000; stroke-width: 0.8"/>
      </defs>
      <g>
       <use xlink:href="#mb8a47ee9e5" x="70.796856" y="135.34" style="stroke: #000000; stroke-width: 0.8"/>
      </g>
     </g>
     <g id="text_1">
      <!-- 0 -->
      <g transform="translate(67.615606 149.938437) scale(0.1 -0.1)">
       <defs>
        <path id="DejaVuSans-30" d="M 2034 4250 
Q 1547 4250 1301 3770 
Q 1056 3291 1056 2328 
Q 1056 1369 1301 889 
Q 1547 409 2034 409 
Q 2525 409 2770 889 
Q 3016 1369 3016 2328 
Q 3016 3291 2770 3770 
Q 2525 4250 2034 4250 
z
M 2034 4750 
Q 2819 4750 3233 4129 
Q 3647 3509 3647 2328 
Q 3647 1150 3233 529 
Q 2819 -91 2034 -91 
Q 1250 -91 836 529 
Q 422 1150 422 2328 
Q 422 3509 836 4129 
Q 1250 4750 2034 4750 
z
" transform="scale(0.015625)"/>
       </defs>
       <use xlink:href="#DejaVuSans-30"/>
      </g>
     </g>
    </g>
    <g id="xtick_2">
     <g id="line2d_2">
      <g>
       <use xlink:href="#mb8a47ee9e5" x="124.963371" y="135.34" style="stroke: #000000; stroke-width: 0.8"/>
      </g>
     </g>
     <g id="text_2">
      <!-- 2000 -->
      <g transform="translate(112.238371 149.938437) scale(0.1 -0.1)">
       <defs>
        <path id="DejaVuSans-32" d="M 1228 531 
L 3431 531 
L 3431 0 
L 469 0 
L 469 531 
Q 828 903 1448 1529 
Q 2069 2156 2228 2338 
Q 2531 2678 2651 2914 
Q 2772 3150 2772 3378 
Q 2772 3750 2511 3984 
Q 2250 4219 1831 4219 
Q 1534 4219 1204 4116 
Q 875 4013 500 3803 
L 500 4441 
Q 881 4594 1212 4672 
Q 1544 4750 1819 4750 
Q 2544 4750 2975 4387 
Q 3406 4025 3406 3419 
Q 3406 3131 3298 2873 
Q 3191 2616 2906 2266 
Q 2828 2175 2409 1742 
Q 1991 1309 1228 531 
z
" transform="scale(0.015625)"/>
       </defs>
       <use xlink:href="#DejaVuSans-32"/>
       <use xlink:href="#DejaVuSans-30" x="63.623047"/>
       <use xlink:href="#DejaVuSans-30" x="127.246094"/>
       <use xlink:href="#DejaVuSans-30" x="190.869141"/>
      </g>
     </g>
    </g>
    <g id="xtick_3">
     <g id="line2d_3">
      <g>
       <use xlink:href="#mb8a47ee9e5" x="179.129886" y="135.34" style="stroke: #000000; stroke-width: 0.8"/>
      </g>
     </g>
     <g id="text_3">
      <!-- 4000 -->
      <g transform="translate(166.404886 149.938437) scale(0.1 -0.1)">
       <defs>
        <path id="DejaVuSans-34" d="M 2419 4116 
L 825 1625 
L 2419 1625 
L 2419 4116 
z
M 2253 4666 
L 3047 4666 
L 3047 1625 
L 3713 1625 
L 3713 1100 
L 3047 1100 
L 3047 0 
L 2419 0 
L 2419 1100 
L 313 1100 
L 313 1709 
L 2253 4666 
z
" transform="scale(0.015625)"/>
       </defs>
       <use xlink:href="#DejaVuSans-34"/>
       <use xlink:href="#DejaVuSans-30" x="63.623047"/>
       <use xlink:href="#DejaVuSans-30" x="127.246094"/>
       <use xlink:href="#DejaVuSans-30" x="190.869141"/>
      </g>
     </g>
    </g>
    <g id="text_4">
     <!-- number of episodes (in 1,000) -->
     <g transform="translate(78.006875 162.096875) scale(0.08 -0.08)">
      <defs>
       <path id="DejaVuSans-6e" d="M 3513 2113 
L 3513 0 
L 2938 0 
L 2938 2094 
Q 2938 2591 2744 2837 
Q 2550 3084 2163 3084 
Q 1697 3084 1428 2787 
Q 1159 2491 1159 1978 
L 1159 0 
L 581 0 
L 581 3500 
L 1159 3500 
L 1159 2956 
Q 1366 3272 1645 3428 
Q 1925 3584 2291 3584 
Q 2894 3584 3203 3211 
Q 3513 2838 3513 2113 
z
" transform="scale(0.015625)"/>
       <path id="DejaVuSans-75" d="M 544 1381 
L 544 3500 
L 1119 3500 
L 1119 1403 
Q 1119 906 1312 657 
Q 1506 409 1894 409 
Q 2359 409 2629 706 
Q 2900 1003 2900 1516 
L 2900 3500 
L 3475 3500 
L 3475 0 
L 2900 0 
L 2900 538 
Q 2691 219 2414 64 
Q 2138 -91 1772 -91 
Q 1169 -91 856 284 
Q 544 659 544 1381 
z
M 1991 3584 
L 1991 3584 
z
" transform="scale(0.015625)"/>
       <path id="DejaVuSans-6d" d="M 3328 2828 
Q 3544 3216 3844 3400 
Q 4144 3584 4550 3584 
Q 5097 3584 5394 3201 
Q 5691 2819 5691 2113 
L 5691 0 
L 5113 0 
L 5113 2094 
Q 5113 2597 4934 2840 
Q 4756 3084 4391 3084 
Q 3944 3084 3684 2787 
Q 3425 2491 3425 1978 
L 3425 0 
L 2847 0 
L 2847 2094 
Q 2847 2600 2669 2842 
Q 2491 3084 2119 3084 
Q 1678 3084 1418 2786 
Q 1159 2488 1159 1978 
L 1159 0 
L 581 0 
L 581 3500 
L 1159 3500 
L 1159 2956 
Q 1356 3278 1631 3431 
Q 1906 3584 2284 3584 
Q 2666 3584 2933 3390 
Q 3200 3197 3328 2828 
z
" transform="scale(0.015625)"/>
       <path id="DejaVuSans-62" d="M 3116 1747 
Q 3116 2381 2855 2742 
Q 2594 3103 2138 3103 
Q 1681 3103 1420 2742 
Q 1159 2381 1159 1747 
Q 1159 1113 1420 752 
Q 1681 391 2138 391 
Q 2594 391 2855 752 
Q 3116 1113 3116 1747 
z
M 1159 2969 
Q 1341 3281 1617 3432 
Q 1894 3584 2278 3584 
Q 2916 3584 3314 3078 
Q 3713 2572 3713 1747 
Q 3713 922 3314 415 
Q 2916 -91 2278 -91 
Q 1894 -91 1617 61 
Q 1341 213 1159 525 
L 1159 0 
L 581 0 
L 581 4863 
L 1159 4863 
L 1159 2969 
z
" transform="scale(0.015625)"/>
       <path id="DejaVuSans-65" d="M 3597 1894 
L 3597 1613 
L 953 1613 
Q 991 1019 1311 708 
Q 1631 397 2203 397 
Q 2534 397 2845 478 
Q 3156 559 3463 722 
L 3463 178 
Q 3153 47 2828 -22 
Q 2503 -91 2169 -91 
Q 1331 -91 842 396 
Q 353 884 353 1716 
Q 353 2575 817 3079 
Q 1281 3584 2069 3584 
Q 2775 3584 3186 3129 
Q 3597 2675 3597 1894 
z
M 3022 2063 
Q 3016 2534 2758 2815 
Q 2500 3097 2075 3097 
Q 1594 3097 1305 2825 
Q 1016 2553 972 2059 
L 3022 2063 
z
" transform="scale(0.015625)"/>
       <path id="DejaVuSans-72" d="M 2631 2963 
Q 2534 3019 2420 3045 
Q 2306 3072 2169 3072 
Q 1681 3072 1420 2755 
Q 1159 2438 1159 1844 
L 1159 0 
L 581 0 
L 581 3500 
L 1159 3500 
L 1159 2956 
Q 1341 3275 1631 3429 
Q 1922 3584 2338 3584 
Q 2397 3584 2469 3576 
Q 2541 3569 2628 3553 
L 2631 2963 
z
" transform="scale(0.015625)"/>
       <path id="DejaVuSans-20" transform="scale(0.015625)"/>
       <path id="DejaVuSans-6f" d="M 1959 3097 
Q 1497 3097 1228 2736 
Q 959 2375 959 1747 
Q 959 1119 1226 758 
Q 1494 397 1959 397 
Q 2419 397 2687 759 
Q 2956 1122 2956 1747 
Q 2956 2369 2687 2733 
Q 2419 3097 1959 3097 
z
M 1959 3584 
Q 2709 3584 3137 3096 
Q 3566 2609 3566 1747 
Q 3566 888 3137 398 
Q 2709 -91 1959 -91 
Q 1206 -91 779 398 
Q 353 888 353 1747 
Q 353 2609 779 3096 
Q 1206 3584 1959 3584 
z
" transform="scale(0.015625)"/>
       <path id="DejaVuSans-66" d="M 2375 4863 
L 2375 4384 
L 1825 4384 
Q 1516 4384 1395 4259 
Q 1275 4134 1275 3809 
L 1275 3500 
L 2222 3500 
L 2222 3053 
L 1275 3053 
L 1275 0 
L 697 0 
L 697 3053 
L 147 3053 
L 147 3500 
L 697 3500 
L 697 3744 
Q 697 4328 969 4595 
Q 1241 4863 1831 4863 
L 2375 4863 
z
" transform="scale(0.015625)"/>
       <path id="DejaVuSans-70" d="M 1159 525 
L 1159 -1331 
L 581 -1331 
L 581 3500 
L 1159 3500 
L 1159 2969 
Q 1341 3281 1617 3432 
Q 1894 3584 2278 3584 
Q 2916 3584 3314 3078 
Q 3713 2572 3713 1747 
Q 3713 922 3314 415 
Q 2916 -91 2278 -91 
Q 1894 -91 1617 61 
Q 1341 213 1159 525 
z
M 3116 1747 
Q 3116 2381 2855 2742 
Q 2594 3103 2138 3103 
Q 1681 3103 1420 2742 
Q 1159 2381 1159 1747 
Q 1159 1113 1420 752 
Q 1681 391 2138 391 
Q 2594 391 2855 752 
Q 3116 1113 3116 1747 
z
" transform="scale(0.015625)"/>
       <path id="DejaVuSans-69" d="M 603 3500 
L 1178 3500 
L 1178 0 
L 603 0 
L 603 3500 
z
M 603 4863 
L 1178 4863 
L 1178 4134 
L 603 4134 
L 603 4863 
z
" transform="scale(0.015625)"/>
       <path id="DejaVuSans-73" d="M 2834 3397 
L 2834 2853 
Q 2591 2978 2328 3040 
Q 2066 3103 1784 3103 
Q 1356 3103 1142 2972 
Q 928 2841 928 2578 
Q 928 2378 1081 2264 
Q 1234 2150 1697 2047 
L 1894 2003 
Q 2506 1872 2764 1633 
Q 3022 1394 3022 966 
Q 3022 478 2636 193 
Q 2250 -91 1575 -91 
Q 1294 -91 989 -36 
Q 684 19 347 128 
L 347 722 
Q 666 556 975 473 
Q 1284 391 1588 391 
Q 1994 391 2212 530 
Q 2431 669 2431 922 
Q 2431 1156 2273 1281 
Q 2116 1406 1581 1522 
L 1381 1569 
Q 847 1681 609 1914 
Q 372 2147 372 2553 
Q 372 3047 722 3315 
Q 1072 3584 1716 3584 
Q 2034 3584 2315 3537 
Q 2597 3491 2834 3397 
z
" transform="scale(0.015625)"/>
       <path id="DejaVuSans-64" d="M 2906 2969 
L 2906 4863 
L 3481 4863 
L 3481 0 
L 2906 0 
L 2906 525 
Q 2725 213 2448 61 
Q 2172 -91 1784 -91 
Q 1150 -91 751 415 
Q 353 922 353 1747 
Q 353 2572 751 3078 
Q 1150 3584 1784 3584 
Q 2172 3584 2448 3432 
Q 2725 3281 2906 2969 
z
M 947 1747 
Q 947 1113 1208 752 
Q 1469 391 1925 391 
Q 2381 391 2643 752 
Q 2906 1113 2906 1747 
Q 2906 2381 2643 2742 
Q 2381 3103 1925 3103 
Q 1469 3103 1208 2742 
Q 947 2381 947 1747 
z
" transform="scale(0.015625)"/>
       <path id="DejaVuSans-28" d="M 1984 4856 
Q 1566 4138 1362 3434 
Q 1159 2731 1159 2009 
Q 1159 1288 1364 580 
Q 1569 -128 1984 -844 
L 1484 -844 
Q 1016 -109 783 600 
Q 550 1309 550 2009 
Q 550 2706 781 3412 
Q 1013 4119 1484 4856 
L 1984 4856 
z
" transform="scale(0.015625)"/>
       <path id="DejaVuSans-31" d="M 794 531 
L 1825 531 
L 1825 4091 
L 703 3866 
L 703 4441 
L 1819 4666 
L 2450 4666 
L 2450 531 
L 3481 531 
L 3481 0 
L 794 0 
L 794 531 
z
" transform="scale(0.015625)"/>
       <path id="DejaVuSans-2c" d="M 750 794 
L 1409 794 
L 1409 256 
L 897 -744 
L 494 -744 
L 750 256 
L 750 794 
z
" transform="scale(0.015625)"/>
       <path id="DejaVuSans-29" d="M 513 4856 
L 1013 4856 
Q 1481 4119 1714 3412 
Q 1947 2706 1947 2009 
Q 1947 1309 1714 600 
Q 1481 -109 1013 -844 
L 513 -844 
Q 928 -128 1133 580 
Q 1338 1288 1338 2009 
Q 1338 2731 1133 3434 
Q 928 4138 513 4856 
z
" transform="scale(0.015625)"/>
      </defs>
      <use xlink:href="#DejaVuSans-6e"/>
      <use xlink:href="#DejaVuSans-75" x="63.378906"/>
      <use xlink:href="#DejaVuSans-6d" x="126.757812"/>
      <use xlink:href="#DejaVuSans-62" x="224.169922"/>
      <use xlink:href="#DejaVuSans-65" x="287.646484"/>
      <use xlink:href="#DejaVuSans-72" x="349.169922"/>
      <use xlink:href="#DejaVuSans-20" x="390.283203"/>
      <use xlink:href="#DejaVuSans-6f" x="422.070312"/>
      <use xlink:href="#DejaVuSans-66" x="483.251953"/>
      <use xlink:href="#DejaVuSans-20" x="518.457031"/>
      <use xlink:href="#DejaVuSans-65" x="550.244141"/>
      <use xlink:href="#DejaVuSans-70" x="611.767578"/>
      <use xlink:href="#DejaVuSans-69" x="675.244141"/>
      <use xlink:href="#DejaVuSans-73" x="703.027344"/>
      <use xlink:href="#DejaVuSans-6f" x="755.126953"/>
      <use xlink:href="#DejaVuSans-64" x="816.308594"/>
      <use xlink:href="#DejaVuSans-65" x="879.785156"/>
      <use xlink:href="#DejaVuSans-73" x="941.308594"/>
      <use xlink:href="#DejaVuSans-20" x="993.408203"/>
      <use xlink:href="#DejaVuSans-28" x="1025.195312"/>
      <use xlink:href="#DejaVuSans-69" x="1064.208984"/>
      <use xlink:href="#DejaVuSans-6e" x="1091.992188"/>
      <use xlink:href="#DejaVuSans-20" x="1155.371094"/>
      <use xlink:href="#DejaVuSans-31" x="1187.158203"/>
      <use xlink:href="#DejaVuSans-2c" x="1250.78125"/>
      <use xlink:href="#DejaVuSans-30" x="1282.568359"/>
      <use xlink:href="#DejaVuSans-30" x="1346.191406"/>
      <use xlink:href="#DejaVuSans-30" x="1409.814453"/>
      <use xlink:href="#DejaVuSans-29" x="1473.4375"/>
     </g>
    </g>
   </g>
   <g id="matplotlib.axis_2">
    <g id="ytick_1">
     <g id="line2d_4">
      <defs>
       <path id="me4005b934b" d="M 0 0 
L -3.5 0 
" style="stroke: #000000; stroke-width: 0.8"/>
      </defs>
      <g>
       <use xlink:href="#me4005b934b" x="64.175" y="131.049732" style="stroke: #000000; stroke-width: 0.8"/>
      </g>
     </g>
     <g id="text_5">
      <!-- 0 -->
      <g transform="translate(50.8125 134.84895) scale(0.1 -0.1)">
       <use xlink:href="#DejaVuSans-30"/>
      </g>
     </g>
    </g>
    <g id="ytick_2">
     <g id="line2d_5">
      <g>
       <use xlink:href="#me4005b934b" x="64.175" y="86.768622" style="stroke: #000000; stroke-width: 0.8"/>
      </g>
     </g>
     <g id="text_6">
      <!-- 1 -->
      <g transform="translate(50.8125 90.56784) scale(0.1 -0.1)">
       <use xlink:href="#DejaVuSans-31"/>
      </g>
     </g>
    </g>
    <g id="ytick_3">
     <g id="line2d_6">
      <g>
       <use xlink:href="#me4005b934b" x="64.175" y="42.487511" style="stroke: #000000; stroke-width: 0.8"/>
      </g>
     </g>
     <g id="text_7">
      <!-- 2 -->
      <g transform="translate(50.8125 46.28673) scale(0.1 -0.1)">
       <use xlink:href="#DejaVuSans-32"/>
      </g>
     </g>
    </g>
    <g id="text_8">
     <!-- number of correctly solved problems -->
     <g transform="translate(45.14875 161.80875) rotate(-90) scale(0.08 -0.08)">
      <defs>
       <path id="DejaVuSans-63" d="M 3122 3366 
L 3122 2828 
Q 2878 2963 2633 3030 
Q 2388 3097 2138 3097 
Q 1578 3097 1268 2742 
Q 959 2388 959 1747 
Q 959 1106 1268 751 
Q 1578 397 2138 397 
Q 2388 397 2633 464 
Q 2878 531 3122 666 
L 3122 134 
Q 2881 22 2623 -34 
Q 2366 -91 2075 -91 
Q 1284 -91 818 406 
Q 353 903 353 1747 
Q 353 2603 823 3093 
Q 1294 3584 2113 3584 
Q 2378 3584 2631 3529 
Q 2884 3475 3122 3366 
z
" transform="scale(0.015625)"/>
       <path id="DejaVuSans-74" d="M 1172 4494 
L 1172 3500 
L 2356 3500 
L 2356 3053 
L 1172 3053 
L 1172 1153 
Q 1172 725 1289 603 
Q 1406 481 1766 481 
L 2356 481 
L 2356 0 
L 1766 0 
Q 1100 0 847 248 
Q 594 497 594 1153 
L 594 3053 
L 172 3053 
L 172 3500 
L 594 3500 
L 594 4494 
L 1172 4494 
z
" transform="scale(0.015625)"/>
       <path id="DejaVuSans-6c" d="M 603 4863 
L 1178 4863 
L 1178 0 
L 603 0 
L 603 4863 
z
" transform="scale(0.015625)"/>
       <path id="DejaVuSans-79" d="M 2059 -325 
Q 1816 -950 1584 -1140 
Q 1353 -1331 966 -1331 
L 506 -1331 
L 506 -850 
L 844 -850 
Q 1081 -850 1212 -737 
Q 1344 -625 1503 -206 
L 1606 56 
L 191 3500 
L 800 3500 
L 1894 763 
L 2988 3500 
L 3597 3500 
L 2059 -325 
z
" transform="scale(0.015625)"/>
       <path id="DejaVuSans-76" d="M 191 3500 
L 800 3500 
L 1894 563 
L 2988 3500 
L 3597 3500 
L 2284 0 
L 1503 0 
L 191 3500 
z
" transform="scale(0.015625)"/>
      </defs>
      <use xlink:href="#DejaVuSans-6e"/>
      <use xlink:href="#DejaVuSans-75" x="63.378906"/>
      <use xlink:href="#DejaVuSans-6d" x="126.757812"/>
      <use xlink:href="#DejaVuSans-62" x="224.169922"/>
      <use xlink:href="#DejaVuSans-65" x="287.646484"/>
      <use xlink:href="#DejaVuSans-72" x="349.169922"/>
      <use xlink:href="#DejaVuSans-20" x="390.283203"/>
      <use xlink:href="#DejaVuSans-6f" x="422.070312"/>
      <use xlink:href="#DejaVuSans-66" x="483.251953"/>
      <use xlink:href="#DejaVuSans-20" x="518.457031"/>
      <use xlink:href="#DejaVuSans-63" x="550.244141"/>
      <use xlink:href="#DejaVuSans-6f" x="605.224609"/>
      <use xlink:href="#DejaVuSans-72" x="666.40625"/>
      <use xlink:href="#DejaVuSans-72" x="705.769531"/>
      <use xlink:href="#DejaVuSans-65" x="744.632812"/>
      <use xlink:href="#DejaVuSans-63" x="806.15625"/>
      <use xlink:href="#DejaVuSans-74" x="861.136719"/>
      <use xlink:href="#DejaVuSans-6c" x="900.345703"/>
      <use xlink:href="#DejaVuSans-79" x="928.128906"/>
      <use xlink:href="#DejaVuSans-20" x="987.308594"/>
      <use xlink:href="#DejaVuSans-73" x="1019.095703"/>
      <use xlink:href="#DejaVuSans-6f" x="1071.195312"/>
      <use xlink:href="#DejaVuSans-6c" x="1132.376953"/>
      <use xlink:href="#DejaVuSans-76" x="1160.160156"/>
      <use xlink:href="#DejaVuSans-65" x="1219.339844"/>
      <use xlink:href="#DejaVuSans-64" x="1280.863281"/>
      <use xlink:href="#DejaVuSans-20" x="1344.339844"/>
      <use xlink:href="#DejaVuSans-70" x="1376.126953"/>
      <use xlink:href="#DejaVuSans-72" x="1439.603516"/>
      <use xlink:href="#DejaVuSans-6f" x="1478.466797"/>
      <use xlink:href="#DejaVuSans-62" x="1539.648438"/>
      <use xlink:href="#DejaVuSans-6c" x="1603.125"/>
      <use xlink:href="#DejaVuSans-65" x="1630.908203"/>
      <use xlink:href="#DejaVuSans-6d" x="1692.431641"/>
      <use xlink:href="#DejaVuSans-73" x="1789.84375"/>
     </g>
    </g>
    <g id="text_9">
     <!-- 1e6 -->
     <g transform="translate(64.175 37.92) scale(0.1 -0.1)">
      <defs>
       <path id="DejaVuSans-36" d="M 2113 2584 
Q 1688 2584 1439 2293 
Q 1191 2003 1191 1497 
Q 1191 994 1439 701 
Q 1688 409 2113 409 
Q 2538 409 2786 701 
Q 3034 994 3034 1497 
Q 3034 2003 2786 2293 
Q 2538 2584 2113 2584 
z
M 3366 4563 
L 3366 3988 
Q 3128 4100 2886 4159 
Q 2644 4219 2406 4219 
Q 1781 4219 1451 3797 
Q 1122 3375 1075 2522 
Q 1259 2794 1537 2939 
Q 1816 3084 2150 3084 
Q 2853 3084 3261 2657 
Q 3669 2231 3669 1497 
Q 3669 778 3244 343 
Q 2819 -91 2113 -91 
Q 1303 -91 875 529 
Q 447 1150 447 2328 
Q 447 3434 972 4092 
Q 1497 4750 2381 4750 
Q 2619 4750 2861 4703 
Q 3103 4656 3366 4563 
z
" transform="scale(0.015625)"/>
      </defs>
      <use xlink:href="#DejaVuSans-31"/>
      <use xlink:href="#DejaVuSans-65" x="63.623047"/>
      <use xlink:href="#DejaVuSans-36" x="125.146484"/>
     </g>
    </g>
   </g>
   <g id="line2d_7">
    <path d="M 70.932273 131.048182 
L 95.307204 130.947752 
L 95.713453 130.465398 
L 96.119702 130.009701 
L 96.796784 129.624323 
L 97.203032 129.272332 
L 98.01553 128.358724 
L 98.150946 128.356466 
L 99.775942 126.874422 
L 99.911358 126.852812 
L 101.130105 125.708766 
L 101.536354 125.384495 
L 102.213435 124.721164 
L 104.650928 122.771821 
L 105.734259 121.697517 
L 106.41134 121.105523 
L 106.682173 120.843379 
L 106.953005 120.651951 
L 107.630087 119.962583 
L 107.900919 119.771554 
L 108.307168 119.252978 
L 108.578001 119.160076 
L 109.661331 118.140814 
L 110.06758 117.787495 
L 110.473829 117.306956 
L 110.609245 117.291724 
L 110.880077 116.918965 
L 111.15091 116.770491 
L 116.296729 112.07718 
L 116.567561 111.958064 
L 117.650892 110.822121 
L 117.786308 110.801707 
L 118.734222 109.846962 
L 119.005055 109.759595 
L 119.952969 108.924808 
L 120.223801 108.710797 
L 121.171715 107.889693 
L 121.442548 107.725543 
L 121.984213 107.206302 
L 122.119629 107.193505 
L 123.20296 106.134257 
L 123.338376 106.111098 
L 123.880041 105.635297 
L 124.150874 105.39733 
L 129.838358 100.678425 
L 130.515439 100.106889 
L 130.786272 99.887919 
L 131.057104 99.692595 
L 131.598769 99.195362 
L 131.869602 99.015537 
L 132.6821 98.250581 
L 132.817516 98.229149 
L 133.494597 97.618601 
L 133.76543 97.422081 
L 134.84876 96.449181 
L 136.473756 95.099227 
L 137.150837 94.570865 
L 137.42167 94.336219 
L 137.557086 94.325414 
L 138.369584 93.557934 
L 138.640416 93.409725 
L 139.046665 93.092495 
L 143.109154 89.741301 
L 143.24457 89.723013 
L 144.598733 88.513652 
L 144.869565 88.398211 
L 145.275814 88.084169 
L 145.952896 87.542213 
L 146.223728 87.355745 
L 146.90081 86.772607 
L 147.713308 86.12845 
L 152.182045 82.645563 
L 152.994543 82.160464 
L 153.400792 81.831101 
L 153.536208 81.819632 
L 153.80704 81.623378 
L 163.015348 75.385897 
L 163.692429 74.945875 
L 164.098678 74.627007 
L 164.504927 74.376199 
L 165.182009 73.942288 
L 166.807004 72.845843 
L 167.484085 72.33205 
L 167.890334 72.100504 
L 168.702832 71.532156 
L 169.786162 70.755731 
L 170.192411 70.499919 
L 170.869493 69.975542 
L 171.411158 69.634932 
L 172.223655 69.0831 
L 173.306986 68.320004 
L 174.390316 67.591845 
L 175.744479 66.645115 
L 176.150728 66.322439 
L 176.556977 66.046213 
L 177.640307 65.168163 
L 178.046556 64.878166 
L 179.265302 63.883347 
L 179.400719 63.878609 
L 179.806968 63.552478 
L 180.213216 63.2755 
L 181.025714 62.627933 
L 182.65071 61.452447 
L 183.056958 61.226436 
L 183.463207 60.925856 
L 183.869456 60.702856 
L 184.275705 60.374202 
L 185.223619 59.689837 
L 185.765284 59.258362 
L 186.036117 59.058566 
L 192.536099 54.386067 
L 192.806931 54.186935 
L 194.431927 53.03567 
L 194.702759 52.879004 
L 195.109008 52.625937 
L 198.900664 49.98851 
L 199.577745 49.521566 
L 200.254827 49.056216 
L 201.067325 48.537462 
L 201.744406 48.039388 
L 202.421488 47.641966 
L 203.098569 47.208011 
L 206.077727 45.211818 
L 206.077727 45.211818 
" clip-path="url(#pe25ba0e8d7)" style="fill: none; stroke: #1f77b4; stroke-width: 1.5; stroke-linecap: square"/>
   </g>
   <g id="patch_3">
    <path d="M 64.175 135.34 
L 64.175 40.92 
" style="fill: none; stroke: #000000; stroke-width: 0.8; stroke-linejoin: miter; stroke-linecap: square"/>
   </g>
   <g id="patch_4">
    <path d="M 212.835 135.34 
L 212.835 40.92 
" style="fill: none; stroke: #000000; stroke-width: 0.8; stroke-linejoin: miter; stroke-linecap: square"/>
   </g>
   <g id="patch_5">
    <path d="M 64.175 135.34 
L 212.835 135.34 
" style="fill: none; stroke: #000000; stroke-width: 0.8; stroke-linejoin: miter; stroke-linecap: square"/>
   </g>
   <g id="patch_6">
    <path d="M 64.175 40.92 
L 212.835 40.92 
" style="fill: none; stroke: #000000; stroke-width: 0.8; stroke-linejoin: miter; stroke-linecap: square"/>
   </g>
  </g>
  <g id="axes_2">
   <g id="patch_7">
    <path d="M 282.14 135.34 
L 430.8 135.34 
L 430.8 40.92 
L 282.14 40.92 
z
" style="fill: #ffffff"/>
   </g>
   <g id="matplotlib.axis_3">
    <g id="xtick_4">
     <g id="line2d_8">
      <g>
       <use xlink:href="#mb8a47ee9e5" x="288.761856" y="135.34" style="stroke: #000000; stroke-width: 0.8"/>
      </g>
     </g>
     <g id="text_10">
      <!-- 0 -->
      <g transform="translate(285.580606 149.938437) scale(0.1 -0.1)">
       <use xlink:href="#DejaVuSans-30"/>
      </g>
     </g>
    </g>
    <g id="xtick_5">
     <g id="line2d_9">
      <g>
       <use xlink:href="#mb8a47ee9e5" x="342.928371" y="135.34" style="stroke: #000000; stroke-width: 0.8"/>
      </g>
     </g>
     <g id="text_11">
      <!-- 2000 -->
      <g transform="translate(330.203371 149.938437) scale(0.1 -0.1)">
       <use xlink:href="#DejaVuSans-32"/>
       <use xlink:href="#DejaVuSans-30" x="63.623047"/>
       <use xlink:href="#DejaVuSans-30" x="127.246094"/>
       <use xlink:href="#DejaVuSans-30" x="190.869141"/>
      </g>
     </g>
    </g>
    <g id="xtick_6">
     <g id="line2d_10">
      <g>
       <use xlink:href="#mb8a47ee9e5" x="397.094886" y="135.34" style="stroke: #000000; stroke-width: 0.8"/>
      </g>
     </g>
     <g id="text_12">
      <!-- 4000 -->
      <g transform="translate(384.369886 149.938437) scale(0.1 -0.1)">
       <use xlink:href="#DejaVuSans-34"/>
       <use xlink:href="#DejaVuSans-30" x="63.623047"/>
       <use xlink:href="#DejaVuSans-30" x="127.246094"/>
       <use xlink:href="#DejaVuSans-30" x="190.869141"/>
      </g>
     </g>
    </g>
    <g id="text_13">
     <!-- number of episodes (in 1,000) -->
     <g transform="translate(295.971875 162.096875) scale(0.08 -0.08)">
      <use xlink:href="#DejaVuSans-6e"/>
      <use xlink:href="#DejaVuSans-75" x="63.378906"/>
      <use xlink:href="#DejaVuSans-6d" x="126.757812"/>
      <use xlink:href="#DejaVuSans-62" x="224.169922"/>
      <use xlink:href="#DejaVuSans-65" x="287.646484"/>
      <use xlink:href="#DejaVuSans-72" x="349.169922"/>
      <use xlink:href="#DejaVuSans-20" x="390.283203"/>
      <use xlink:href="#DejaVuSans-6f" x="422.070312"/>
      <use xlink:href="#DejaVuSans-66" x="483.251953"/>
      <use xlink:href="#DejaVuSans-20" x="518.457031"/>
      <use xlink:href="#DejaVuSans-65" x="550.244141"/>
      <use xlink:href="#DejaVuSans-70" x="611.767578"/>
      <use xlink:href="#DejaVuSans-69" x="675.244141"/>
      <use xlink:href="#DejaVuSans-73" x="703.027344"/>
      <use xlink:href="#DejaVuSans-6f" x="755.126953"/>
      <use xlink:href="#DejaVuSans-64" x="816.308594"/>
      <use xlink:href="#DejaVuSans-65" x="879.785156"/>
      <use xlink:href="#DejaVuSans-73" x="941.308594"/>
      <use xlink:href="#DejaVuSans-20" x="993.408203"/>
      <use xlink:href="#DejaVuSans-28" x="1025.195312"/>
      <use xlink:href="#DejaVuSans-69" x="1064.208984"/>
      <use xlink:href="#DejaVuSans-6e" x="1091.992188"/>
      <use xlink:href="#DejaVuSans-20" x="1155.371094"/>
      <use xlink:href="#DejaVuSans-31" x="1187.158203"/>
      <use xlink:href="#DejaVuSans-2c" x="1250.78125"/>
      <use xlink:href="#DejaVuSans-30" x="1282.568359"/>
      <use xlink:href="#DejaVuSans-30" x="1346.191406"/>
      <use xlink:href="#DejaVuSans-30" x="1409.814453"/>
      <use xlink:href="#DejaVuSans-29" x="1473.4375"/>
     </g>
    </g>
   </g>
   <g id="matplotlib.axis_4">
    <g id="ytick_4">
     <g id="line2d_11">
      <g>
       <use xlink:href="#me4005b934b" x="282.14" y="131.224656" style="stroke: #000000; stroke-width: 0.8"/>
      </g>
     </g>
     <g id="text_14">
      <!-- 0 -->
      <g transform="translate(268.7775 135.023875) scale(0.1 -0.1)">
       <use xlink:href="#DejaVuSans-30"/>
      </g>
     </g>
    </g>
    <g id="ytick_5">
     <g id="line2d_12">
      <g>
       <use xlink:href="#me4005b934b" x="282.14" y="86.918272" style="stroke: #000000; stroke-width: 0.8"/>
      </g>
     </g>
     <g id="text_15">
      <!-- 20 -->
      <g transform="translate(262.415 90.717491) scale(0.1 -0.1)">
       <use xlink:href="#DejaVuSans-32"/>
       <use xlink:href="#DejaVuSans-30" x="63.623047"/>
      </g>
     </g>
    </g>
    <g id="ytick_6">
     <g id="line2d_13">
      <g>
       <use xlink:href="#me4005b934b" x="282.14" y="42.611888" style="stroke: #000000; stroke-width: 0.8"/>
      </g>
     </g>
     <g id="text_16">
      <!-- 40 -->
      <g transform="translate(262.415 46.411106) scale(0.1 -0.1)">
       <use xlink:href="#DejaVuSans-34"/>
       <use xlink:href="#DejaVuSans-30" x="63.623047"/>
      </g>
     </g>
    </g>
    <g id="text_17">
     <!-- proportion of correctly solved (in %) -->
     <g transform="translate(256.75125 160.238125) rotate(-90) scale(0.08 -0.08)">
      <defs>
       <path id="DejaVuSans-25" d="M 4653 2053 
Q 4381 2053 4226 1822 
Q 4072 1591 4072 1178 
Q 4072 772 4226 539 
Q 4381 306 4653 306 
Q 4919 306 5073 539 
Q 5228 772 5228 1178 
Q 5228 1588 5073 1820 
Q 4919 2053 4653 2053 
z
M 4653 2450 
Q 5147 2450 5437 2106 
Q 5728 1763 5728 1178 
Q 5728 594 5436 251 
Q 5144 -91 4653 -91 
Q 4153 -91 3862 251 
Q 3572 594 3572 1178 
Q 3572 1766 3864 2108 
Q 4156 2450 4653 2450 
z
M 1428 4353 
Q 1159 4353 1004 4120 
Q 850 3888 850 3481 
Q 850 3069 1003 2837 
Q 1156 2606 1428 2606 
Q 1700 2606 1854 2837 
Q 2009 3069 2009 3481 
Q 2009 3884 1853 4118 
Q 1697 4353 1428 4353 
z
M 4250 4750 
L 4750 4750 
L 1831 -91 
L 1331 -91 
L 4250 4750 
z
M 1428 4750 
Q 1922 4750 2215 4408 
Q 2509 4066 2509 3481 
Q 2509 2891 2217 2550 
Q 1925 2209 1428 2209 
Q 931 2209 642 2551 
Q 353 2894 353 3481 
Q 353 4063 643 4406 
Q 934 4750 1428 4750 
z
" transform="scale(0.015625)"/>
      </defs>
      <use xlink:href="#DejaVuSans-70"/>
      <use xlink:href="#DejaVuSans-72" x="63.476562"/>
      <use xlink:href="#DejaVuSans-6f" x="102.339844"/>
      <use xlink:href="#DejaVuSans-70" x="163.521484"/>
      <use xlink:href="#DejaVuSans-6f" x="226.998047"/>
      <use xlink:href="#DejaVuSans-72" x="288.179688"/>
      <use xlink:href="#DejaVuSans-74" x="329.292969"/>
      <use xlink:href="#DejaVuSans-69" x="368.501953"/>
      <use xlink:href="#DejaVuSans-6f" x="396.285156"/>
      <use xlink:href="#DejaVuSans-6e" x="457.466797"/>
      <use xlink:href="#DejaVuSans-20" x="520.845703"/>
      <use xlink:href="#DejaVuSans-6f" x="552.632812"/>
      <use xlink:href="#DejaVuSans-66" x="613.814453"/>
      <use xlink:href="#DejaVuSans-20" x="649.019531"/>
      <use xlink:href="#DejaVuSans-63" x="680.806641"/>
      <use xlink:href="#DejaVuSans-6f" x="735.787109"/>
      <use xlink:href="#DejaVuSans-72" x="796.96875"/>
      <use xlink:href="#DejaVuSans-72" x="836.332031"/>
      <use xlink:href="#DejaVuSans-65" x="875.195312"/>
      <use xlink:href="#DejaVuSans-63" x="936.71875"/>
      <use xlink:href="#DejaVuSans-74" x="991.699219"/>
      <use xlink:href="#DejaVuSans-6c" x="1030.908203"/>
      <use xlink:href="#DejaVuSans-79" x="1058.691406"/>
      <use xlink:href="#DejaVuSans-20" x="1117.871094"/>
      <use xlink:href="#DejaVuSans-73" x="1149.658203"/>
      <use xlink:href="#DejaVuSans-6f" x="1201.757812"/>
      <use xlink:href="#DejaVuSans-6c" x="1262.939453"/>
      <use xlink:href="#DejaVuSans-76" x="1290.722656"/>
      <use xlink:href="#DejaVuSans-65" x="1349.902344"/>
      <use xlink:href="#DejaVuSans-64" x="1411.425781"/>
      <use xlink:href="#DejaVuSans-20" x="1474.902344"/>
      <use xlink:href="#DejaVuSans-28" x="1506.689453"/>
      <use xlink:href="#DejaVuSans-69" x="1545.703125"/>
      <use xlink:href="#DejaVuSans-6e" x="1573.486328"/>
      <use xlink:href="#DejaVuSans-20" x="1636.865234"/>
      <use xlink:href="#DejaVuSans-25" x="1668.652344"/>
      <use xlink:href="#DejaVuSans-29" x="1763.671875"/>
     </g>
    </g>
   </g>
   <g id="line2d_14">
    <path d="M 288.897273 129.673933 
L 289.168105 130.619136 
L 289.70977 130.851217 
L 290.793101 130.947003 
L 293.772259 131.037851 
L 313.136788 130.967679 
L 313.272204 130.660913 
L 313.678453 128.047118 
L 314.084702 125.659822 
L 314.626367 124.571972 
L 315.303449 121.321501 
L 315.98053 117.828919 
L 316.115946 117.884048 
L 317.06386 114.35516 
L 317.199277 114.09412 
L 318.011774 111.114891 
L 318.959688 107.860291 
L 319.907602 104.678197 
L 320.043019 104.574654 
L 320.449268 103.03311 
L 320.584684 103.07106 
L 320.855516 102.295205 
L 320.990933 102.118713 
L 321.126349 101.422959 
L 321.261765 101.507626 
L 321.532598 100.931356 
L 321.938847 99.773453 
L 322.074263 99.534245 
L 322.345096 98.642849 
L 322.480512 98.475477 
L 324.647173 92.688134 
L 324.782589 92.678935 
L 325.595087 90.439815 
L 325.865919 90.039932 
L 326.272168 88.612791 
L 326.407584 88.657855 
L 326.543001 88.585081 
L 327.220082 87.051347 
L 327.355498 86.914075 
L 327.626331 86.220176 
L 327.897163 85.930654 
L 328.438829 84.294215 
L 328.574245 84.402001 
L 328.845077 83.458333 
L 328.980494 83.543229 
L 329.792991 81.794816 
L 329.928408 81.273143 
L 330.19924 81.390399 
L 330.605489 80.341857 
L 330.740905 80.282891 
L 331.011738 79.687527 
L 331.282571 79.025809 
L 331.417987 78.922728 
L 331.553403 78.459959 
L 331.688819 78.411167 
L 331.824236 77.952499 
L 331.959652 78.014911 
L 332.230485 77.532082 
L 332.365901 77.059826 
L 332.501317 77.012983 
L 332.636733 77.136954 
L 332.77215 76.9128 
L 333.042982 76.219974 
L 333.178399 76.372677 
L 333.584647 75.568475 
L 333.990896 75.195121 
L 334.126313 74.782687 
L 334.532561 74.708193 
L 335.074227 73.697998 
L 335.209643 73.647799 
L 336.157557 71.946385 
L 336.292973 72.092422 
L 336.699222 71.295641 
L 336.970055 71.386768 
L 337.376304 70.770261 
L 337.647136 70.678448 
L 337.917969 70.239664 
L 338.053385 70.247143 
L 338.59505 69.307929 
L 338.730466 69.403442 
L 339.136715 68.930952 
L 339.272132 68.983333 
L 339.949213 68.110798 
L 340.084629 68.24354 
L 340.761711 67.319735 
L 340.897127 67.268908 
L 341.16796 66.806837 
L 341.303376 66.91314 
L 341.709625 66.330308 
L 341.980457 66.331136 
L 342.386706 65.711961 
L 342.522122 65.814036 
L 343.33462 65.086768 
L 343.605453 64.881261 
L 343.740869 64.881739 
L 344.147118 64.322016 
L 344.41795 64.295712 
L 344.688783 63.837649 
L 344.824199 63.851234 
L 345.365864 63.271912 
L 345.501281 63.373923 
L 345.90753 62.792396 
L 346.042946 62.912382 
L 346.449195 62.359118 
L 346.584611 62.281951 
L 346.720027 62.398311 
L 347.803358 61.525938 
L 347.938774 61.478195 
L 348.209606 61.108239 
L 348.480439 61.019432 
L 348.615855 60.830733 
L 348.886688 60.870409 
L 349.563769 60.23902 
L 349.699186 60.256167 
L 351.459597 58.977977 
L 351.595014 59.0444 
L 352.001263 58.602223 
L 352.272095 58.473479 
L 352.542928 58.180925 
L 352.678344 58.18652 
L 353.084593 57.872872 
L 353.355425 57.6011 
L 353.490842 57.699787 
L 355.38667 56.561104 
L 355.522086 56.690623 
L 355.928335 56.422438 
L 356.47 56.114967 
L 357.824163 55.441105 
L 358.094995 55.161671 
L 358.230412 55.251126 
L 358.501244 55.008126 
L 358.636661 55.022398 
L 359.042909 54.762423 
L 359.584575 54.493962 
L 359.719991 54.523541 
L 359.990823 54.335222 
L 360.261656 54.240971 
L 360.667905 53.970926 
L 360.803321 54.02886 
L 361.615819 53.720684 
L 361.751235 53.757779 
L 362.563733 53.132256 
L 362.834565 53.206621 
L 362.969982 53.056794 
L 363.105398 53.149705 
L 363.511647 52.917697 
L 363.647063 52.937038 
L 363.917896 52.787986 
L 364.053312 52.850089 
L 364.459561 52.548169 
L 364.594977 52.597835 
L 364.86581 52.394769 
L 365.136642 52.293775 
L 365.272059 52.195006 
L 365.542891 52.208088 
L 365.813724 52.040193 
L 365.94914 52.030181 
L 366.219973 51.813441 
L 366.490805 51.863277 
L 366.761638 51.681466 
L 367.03247 51.623484 
L 367.438719 51.362742 
L 367.709552 51.313494 
L 367.980384 51.108337 
L 368.115801 51.217306 
L 368.928298 50.887901 
L 369.063715 50.963604 
L 369.469964 50.825964 
L 370.011629 50.727931 
L 370.282461 50.661224 
L 371.094959 50.534059 
L 371.230375 50.598968 
L 371.365792 50.492323 
L 371.501208 50.605673 
L 371.636624 50.454624 
L 371.907457 50.52736 
L 372.313706 50.521906 
L 373.126203 50.315367 
L 373.532452 50.308388 
L 373.938701 50.182362 
L 374.074117 50.25291 
L 374.209534 50.183926 
L 374.34495 50.266516 
L 374.751199 50.128204 
L 374.886615 50.155676 
L 375.022031 50.037137 
L 375.157448 50.09925 
L 375.292864 49.978188 
L 375.42828 50.037499 
L 375.563696 49.9382 
L 375.834529 49.926024 
L 376.917859 49.867177 
L 377.865773 49.717675 
L 378.00119 49.804447 
L 378.407439 49.683842 
L 378.678271 49.699975 
L 379.08452 49.675468 
L 380.032434 49.546297 
L 395.334474 47.783349 
L 395.605307 47.67691 
L 396.011556 47.627012 
L 396.688637 47.451735 
L 396.824054 47.521179 
L 397.230302 47.323631 
L 397.365719 47.422334 
L 397.636551 47.376257 
L 398.313633 47.239084 
L 400.886542 46.909553 
L 401.292791 46.947302 
L 401.69904 46.87651 
L 401.834456 46.928815 
L 401.969872 46.830799 
L 402.240705 46.838177 
L 402.78237 46.753587 
L 405.35528 46.43541 
L 405.626112 46.426036 
L 406.032361 46.446436 
L 411.042764 45.846646 
L 411.449013 45.831387 
L 411.855261 45.769436 
L 412.26151 45.807437 
L 412.396927 45.727844 
L 412.667759 45.743405 
L 413.074008 45.746926 
L 415.240669 45.61661 
L 417.271913 45.476349 
L 417.678162 45.411009 
L 418.219827 45.408427 
L 418.761492 45.391513 
L 419.438574 45.358011 
L 420.386488 45.365219 
L 420.928153 45.360291 
L 422.959397 45.269555 
L 423.636478 45.211818 
L 424.042727 45.251776 
L 424.042727 45.251776 
" clip-path="url(#p7b73aa8967)" style="fill: none; stroke: #1f77b4; stroke-width: 1.5; stroke-linecap: square"/>
   </g>
   <g id="patch_8">
    <path d="M 282.14 135.34 
L 282.14 40.92 
" style="fill: none; stroke: #000000; stroke-width: 0.8; stroke-linejoin: miter; stroke-linecap: square"/>
   </g>
   <g id="patch_9">
    <path d="M 430.8 135.34 
L 430.8 40.92 
" style="fill: none; stroke: #000000; stroke-width: 0.8; stroke-linejoin: miter; stroke-linecap: square"/>
   </g>
   <g id="patch_10">
    <path d="M 282.14 135.34 
L 430.8 135.34 
" style="fill: none; stroke: #000000; stroke-width: 0.8; stroke-linejoin: miter; stroke-linecap: square"/>
   </g>
   <g id="patch_11">
    <path d="M 282.14 40.92 
L 430.8 40.92 
" style="fill: none; stroke: #000000; stroke-width: 0.8; stroke-linejoin: miter; stroke-linecap: square"/>
   </g>
  </g>
  <g id="axes_3">
   <g id="patch_12">
    <path d="M 64.175 288.04 
L 212.835 288.04 
L 212.835 193.62 
L 64.175 193.62 
z
" style="fill: #ffffff"/>
   </g>
   <g id="matplotlib.axis_5">
    <g id="xtick_7">
     <g id="line2d_15">
      <g>
       <use xlink:href="#mb8a47ee9e5" x="70.796856" y="288.04" style="stroke: #000000; stroke-width: 0.8"/>
      </g>
     </g>
     <g id="text_18">
      <!-- 0 -->
      <g transform="translate(67.615606 302.638438) scale(0.1 -0.1)">
       <use xlink:href="#DejaVuSans-30"/>
      </g>
     </g>
    </g>
    <g id="xtick_8">
     <g id="line2d_16">
      <g>
       <use xlink:href="#mb8a47ee9e5" x="124.963371" y="288.04" style="stroke: #000000; stroke-width: 0.8"/>
      </g>
     </g>
     <g id="text_19">
      <!-- 2000 -->
      <g transform="translate(112.238371 302.638438) scale(0.1 -0.1)">
       <use xlink:href="#DejaVuSans-32"/>
       <use xlink:href="#DejaVuSans-30" x="63.623047"/>
       <use xlink:href="#DejaVuSans-30" x="127.246094"/>
       <use xlink:href="#DejaVuSans-30" x="190.869141"/>
      </g>
     </g>
    </g>
    <g id="xtick_9">
     <g id="line2d_17">
      <g>
       <use xlink:href="#mb8a47ee9e5" x="179.129886" y="288.04" style="stroke: #000000; stroke-width: 0.8"/>
      </g>
     </g>
     <g id="text_20">
      <!-- 4000 -->
      <g transform="translate(166.404886 302.638438) scale(0.1 -0.1)">
       <use xlink:href="#DejaVuSans-34"/>
       <use xlink:href="#DejaVuSans-30" x="63.623047"/>
       <use xlink:href="#DejaVuSans-30" x="127.246094"/>
       <use xlink:href="#DejaVuSans-30" x="190.869141"/>
      </g>
     </g>
    </g>
    <g id="text_21">
     <!-- number of episodes (in 1000) -->
     <g transform="translate(94.084844 313.277188) scale(0.06 -0.06)">
      <use xlink:href="#DejaVuSans-6e"/>
      <use xlink:href="#DejaVuSans-75" x="63.378906"/>
      <use xlink:href="#DejaVuSans-6d" x="126.757812"/>
      <use xlink:href="#DejaVuSans-62" x="224.169922"/>
      <use xlink:href="#DejaVuSans-65" x="287.646484"/>
      <use xlink:href="#DejaVuSans-72" x="349.169922"/>
      <use xlink:href="#DejaVuSans-20" x="390.283203"/>
      <use xlink:href="#DejaVuSans-6f" x="422.070312"/>
      <use xlink:href="#DejaVuSans-66" x="483.251953"/>
      <use xlink:href="#DejaVuSans-20" x="518.457031"/>
      <use xlink:href="#DejaVuSans-65" x="550.244141"/>
      <use xlink:href="#DejaVuSans-70" x="611.767578"/>
      <use xlink:href="#DejaVuSans-69" x="675.244141"/>
      <use xlink:href="#DejaVuSans-73" x="703.027344"/>
      <use xlink:href="#DejaVuSans-6f" x="755.126953"/>
      <use xlink:href="#DejaVuSans-64" x="816.308594"/>
      <use xlink:href="#DejaVuSans-65" x="879.785156"/>
      <use xlink:href="#DejaVuSans-73" x="941.308594"/>
      <use xlink:href="#DejaVuSans-20" x="993.408203"/>
      <use xlink:href="#DejaVuSans-28" x="1025.195312"/>
      <use xlink:href="#DejaVuSans-69" x="1064.208984"/>
      <use xlink:href="#DejaVuSans-6e" x="1091.992188"/>
      <use xlink:href="#DejaVuSans-20" x="1155.371094"/>
      <use xlink:href="#DejaVuSans-31" x="1187.158203"/>
      <use xlink:href="#DejaVuSans-30" x="1250.78125"/>
      <use xlink:href="#DejaVuSans-30" x="1314.404297"/>
      <use xlink:href="#DejaVuSans-30" x="1378.027344"/>
      <use xlink:href="#DejaVuSans-29" x="1441.650391"/>
     </g>
    </g>
   </g>
   <g id="matplotlib.axis_6">
    <g id="ytick_7">
     <g id="line2d_18">
      <g>
       <use xlink:href="#me4005b934b" x="64.175" y="283.748182" style="stroke: #000000; stroke-width: 0.8"/>
      </g>
     </g>
     <g id="text_22">
      <!-- 0 -->
      <g transform="translate(50.8125 287.547401) scale(0.1 -0.1)">
       <use xlink:href="#DejaVuSans-30"/>
      </g>
     </g>
    </g>
    <g id="ytick_8">
     <g id="line2d_19">
      <g>
       <use xlink:href="#me4005b934b" x="64.175" y="238.408881" style="stroke: #000000; stroke-width: 0.8"/>
      </g>
     </g>
     <g id="text_23">
      <!-- 50 -->
      <g transform="translate(44.45 242.2081) scale(0.1 -0.1)">
       <defs>
        <path id="DejaVuSans-35" d="M 691 4666 
L 3169 4666 
L 3169 4134 
L 1269 4134 
L 1269 2991 
Q 1406 3038 1543 3061 
Q 1681 3084 1819 3084 
Q 2600 3084 3056 2656 
Q 3513 2228 3513 1497 
Q 3513 744 3044 326 
Q 2575 -91 1722 -91 
Q 1428 -91 1123 -41 
Q 819 9 494 109 
L 494 744 
Q 775 591 1075 516 
Q 1375 441 1709 441 
Q 2250 441 2565 725 
Q 2881 1009 2881 1497 
Q 2881 1984 2565 2268 
Q 2250 2553 1709 2553 
Q 1456 2553 1204 2497 
Q 953 2441 691 2322 
L 691 4666 
z
" transform="scale(0.015625)"/>
       </defs>
       <use xlink:href="#DejaVuSans-35"/>
       <use xlink:href="#DejaVuSans-30" x="63.623047"/>
      </g>
     </g>
    </g>
    <g id="text_24">
     <!-- proportion correctly solved within 5,000 episodes (in %) -->
     <g transform="translate(38.78625 352.935625) rotate(-90) scale(0.08 -0.08)">
      <defs>
       <path id="DejaVuSans-77" d="M 269 3500 
L 844 3500 
L 1563 769 
L 2278 3500 
L 2956 3500 
L 3675 769 
L 4391 3500 
L 4966 3500 
L 4050 0 
L 3372 0 
L 2619 2869 
L 1863 0 
L 1184 0 
L 269 3500 
z
" transform="scale(0.015625)"/>
       <path id="DejaVuSans-68" d="M 3513 2113 
L 3513 0 
L 2938 0 
L 2938 2094 
Q 2938 2591 2744 2837 
Q 2550 3084 2163 3084 
Q 1697 3084 1428 2787 
Q 1159 2491 1159 1978 
L 1159 0 
L 581 0 
L 581 4863 
L 1159 4863 
L 1159 2956 
Q 1366 3272 1645 3428 
Q 1925 3584 2291 3584 
Q 2894 3584 3203 3211 
Q 3513 2838 3513 2113 
z
" transform="scale(0.015625)"/>
      </defs>
      <use xlink:href="#DejaVuSans-70"/>
      <use xlink:href="#DejaVuSans-72" x="63.476562"/>
      <use xlink:href="#DejaVuSans-6f" x="102.339844"/>
      <use xlink:href="#DejaVuSans-70" x="163.521484"/>
      <use xlink:href="#DejaVuSans-6f" x="226.998047"/>
      <use xlink:href="#DejaVuSans-72" x="288.179688"/>
      <use xlink:href="#DejaVuSans-74" x="329.292969"/>
      <use xlink:href="#DejaVuSans-69" x="368.501953"/>
      <use xlink:href="#DejaVuSans-6f" x="396.285156"/>
      <use xlink:href="#DejaVuSans-6e" x="457.466797"/>
      <use xlink:href="#DejaVuSans-20" x="520.845703"/>
      <use xlink:href="#DejaVuSans-63" x="552.632812"/>
      <use xlink:href="#DejaVuSans-6f" x="607.613281"/>
      <use xlink:href="#DejaVuSans-72" x="668.794922"/>
      <use xlink:href="#DejaVuSans-72" x="708.158203"/>
      <use xlink:href="#DejaVuSans-65" x="747.021484"/>
      <use xlink:href="#DejaVuSans-63" x="808.544922"/>
      <use xlink:href="#DejaVuSans-74" x="863.525391"/>
      <use xlink:href="#DejaVuSans-6c" x="902.734375"/>
      <use xlink:href="#DejaVuSans-79" x="930.517578"/>
      <use xlink:href="#DejaVuSans-20" x="989.697266"/>
      <use xlink:href="#DejaVuSans-73" x="1021.484375"/>
      <use xlink:href="#DejaVuSans-6f" x="1073.583984"/>
      <use xlink:href="#DejaVuSans-6c" x="1134.765625"/>
      <use xlink:href="#DejaVuSans-76" x="1162.548828"/>
      <use xlink:href="#DejaVuSans-65" x="1221.728516"/>
      <use xlink:href="#DejaVuSans-64" x="1283.251953"/>
      <use xlink:href="#DejaVuSans-20" x="1346.728516"/>
      <use xlink:href="#DejaVuSans-77" x="1378.515625"/>
      <use xlink:href="#DejaVuSans-69" x="1460.302734"/>
      <use xlink:href="#DejaVuSans-74" x="1488.085938"/>
      <use xlink:href="#DejaVuSans-68" x="1527.294922"/>
      <use xlink:href="#DejaVuSans-69" x="1590.673828"/>
      <use xlink:href="#DejaVuSans-6e" x="1618.457031"/>
      <use xlink:href="#DejaVuSans-20" x="1681.835938"/>
      <use xlink:href="#DejaVuSans-35" x="1713.623047"/>
      <use xlink:href="#DejaVuSans-2c" x="1777.246094"/>
      <use xlink:href="#DejaVuSans-30" x="1809.033203"/>
      <use xlink:href="#DejaVuSans-30" x="1872.65625"/>
      <use xlink:href="#DejaVuSans-30" x="1936.279297"/>
      <use xlink:href="#DejaVuSans-20" x="1999.902344"/>
      <use xlink:href="#DejaVuSans-65" x="2031.689453"/>
      <use xlink:href="#DejaVuSans-70" x="2093.212891"/>
      <use xlink:href="#DejaVuSans-69" x="2156.689453"/>
      <use xlink:href="#DejaVuSans-73" x="2184.472656"/>
      <use xlink:href="#DejaVuSans-6f" x="2236.572266"/>
      <use xlink:href="#DejaVuSans-64" x="2297.753906"/>
      <use xlink:href="#DejaVuSans-65" x="2361.230469"/>
      <use xlink:href="#DejaVuSans-73" x="2422.753906"/>
      <use xlink:href="#DejaVuSans-20" x="2474.853516"/>
      <use xlink:href="#DejaVuSans-28" x="2506.640625"/>
      <use xlink:href="#DejaVuSans-69" x="2545.654297"/>
      <use xlink:href="#DejaVuSans-6e" x="2573.4375"/>
      <use xlink:href="#DejaVuSans-20" x="2636.816406"/>
      <use xlink:href="#DejaVuSans-25" x="2668.603516"/>
      <use xlink:href="#DejaVuSans-29" x="2763.623047"/>
     </g>
    </g>
   </g>
   <g id="line2d_20">
    <path d="M 70.932273 283.113432 
L 71.067689 283.693775 
L 72.421852 283.693775 
L 72.557268 283.530553 
L 72.828101 283.693775 
L 76.213508 283.58496 
L 76.348924 283.566825 
L 76.48434 283.693775 
L 76.755173 283.693775 
L 77.161422 283.71191 
L 77.296838 283.639367 
L 77.567671 283.71191 
L 77.703087 283.657503 
L 77.838503 283.730046 
L 78.244752 283.675639 
L 78.515585 283.730046 
L 79.05725 283.693775 
L 79.328083 283.657503 
L 79.598915 283.530553 
L 79.734331 283.693775 
L 80.14058 283.621232 
L 80.275997 283.730046 
L 80.546829 283.693775 
L 80.682245 283.693775 
L 80.817662 283.512417 
L 80.953078 283.675639 
L 81.630159 283.603096 
L 81.765576 283.71191 
L 82.307241 283.58496 
L 82.442657 283.730046 
L 82.578073 283.603096 
L 82.71349 283.693775 
L 82.984322 283.675639 
L 83.255155 283.71191 
L 83.661404 283.512417 
L 83.79682 283.71191 
L 84.067653 283.657503 
L 84.203069 283.530553 
L 84.473901 283.693775 
L 84.88015 283.58496 
L 85.150983 283.730046 
L 85.286399 283.657503 
L 85.421815 283.71191 
L 85.557232 283.439875 
L 85.692648 283.730046 
L 86.098897 283.58496 
L 86.234313 283.693775 
L 86.505146 283.675639 
L 87.046811 283.675639 
L 87.182227 283.548689 
L 87.45306 283.693775 
L 88.53639 283.548689 
L 88.671806 283.71191 
L 88.942639 283.657503 
L 89.078055 283.621232 
L 89.348888 283.693775 
L 89.484304 283.58496 
L 89.61972 283.748182 
L 89.890553 283.675639 
L 90.296802 283.675639 
L 91.786381 283.621232 
L 91.921797 283.548689 
L 92.057214 283.657503 
L 92.19263 283.530553 
L 92.328046 283.657503 
L 92.869711 283.512417 
L 93.005128 283.675639 
L 93.140544 283.657503 
L 93.411376 283.349196 
L 93.546793 283.639367 
L 94.088458 283.421739 
L 94.223874 283.657503 
L 94.35929 283.530553 
L 94.494707 283.621232 
L 94.630123 283.258517 
L 94.765539 283.512417 
L 95.036372 283.548689 
L 95.171788 283.276653 
L 95.713453 205.456278 
L 95.84887 207.088493 
L 95.984286 205.927807 
L 96.255118 261.005989 
L 96.390535 243.958412 
L 96.525951 280.792059 
L 96.796784 220.073668 
L 96.9322 247.386063 
L 97.067616 221.198083 
L 97.203032 238.49956 
L 97.338449 217.190089 
L 97.473865 226.783885 
L 97.609281 212.347851 
L 97.744698 224.734548 
L 97.880114 221.615204 
L 98.01553 225.641334 
L 98.150946 282.82326 
L 98.286363 231.317815 
L 98.421779 236.722259 
L 98.557195 215.249567 
L 98.692612 223.229284 
L 98.828028 283.45801 
L 98.963444 220.472654 
L 99.234277 254.404587 
L 99.369693 227.346092 
L 99.505109 223.664541 
L 99.640526 223.573862 
L 99.775942 222.884705 
L 99.911358 274.89795 
L 100.046774 224.64387 
L 100.182191 228.869493 
L 100.317607 220.218754 
L 100.453023 224.952177 
L 100.58844 219.475189 
L 100.723856 224.716413 
L 100.859272 269.058248 
L 101.130105 228.996443 
L 101.265521 255.003065 
L 101.400937 217.389582 
L 101.536354 246.04402 
L 101.67177 219.058068 
L 101.807186 232.152058 
L 101.942602 221.071133 
L 102.078019 263.091597 
L 102.213435 211.694966 
L 102.348851 241.63704 
L 102.484268 217.534667 
L 102.619684 275.859144 
L 102.7551 210.498008 
L 102.890516 258.684617 
L 103.025933 254.712894 
L 103.161349 203.769656 
L 103.296765 279.867138 
L 103.567598 239.460753 
L 103.703014 222.050462 
L 103.83843 251.756771 
L 103.973847 224.117934 
L 104.109263 246.787584 
L 104.244679 217.534667 
L 104.515512 253.352715 
L 104.786345 222.594533 
L 104.921761 227.781349 
L 105.057177 227.636264 
L 105.192593 222.358769 
L 105.32801 244.538755 
L 105.463426 213.272773 
L 105.598842 259.736488 
L 105.734259 212.075816 
L 105.869675 243.069761 
L 106.005091 201.865405 
L 106.140507 273.175057 
L 106.275924 232.714265 
L 106.41134 225.459977 
L 106.546756 201.792862 
L 106.682173 258.340038 
L 106.817589 266.972641 
L 107.088421 213.526673 
L 107.223838 235.706659 
L 107.359254 200.813533 
L 107.49467 242.65264 
L 107.630087 243.704512 
L 107.765503 248.691835 
L 107.900919 240.567032 
L 108.036335 200.740991 
L 108.171752 240.204318 
L 108.307168 197.911818 
L 108.442584 271.434028 
L 108.578001 258.013595 
L 108.848833 202.790327 
L 108.984249 218.876711 
L 109.119666 282.805124 
L 109.255082 222.957248 
L 109.390498 249.653028 
L 109.525915 219.221289 
L 109.796747 250.197099 
L 109.932163 246.207241 
L 110.202996 202.445748 
L 110.338412 212.402259 
L 110.609245 277.509494 
L 110.744661 201.430148 
L 110.880077 213.399723 
L 111.015494 274.5171 
L 111.15091 232.170194 
L 111.286326 232.224601 
L 111.421743 243.631969 
L 111.557159 233.548508 
L 111.692575 214.016338 
L 111.827991 212.94633 
L 111.963408 198.600976 
L 112.098824 273.973029 
L 112.23424 267.317219 
L 112.369657 206.145435 
L 112.505073 205.329328 
L 112.775905 255.438323 
L 113.046738 221.107404 
L 113.182154 202.409477 
L 113.452987 249.090821 
L 113.588403 202.48202 
L 113.723819 255.819173 
L 113.859236 202.427613 
L 113.994652 270.091985 
L 114.130068 232.659858 
L 114.265485 227.835756 
L 114.400901 199.525897 
L 114.671733 277.999159 
L 114.942566 201.303198 
L 115.077982 228.996443 
L 115.213399 281.735117 
L 115.348815 218.840439 
L 115.484231 249.108956 
L 115.619647 206.979678 
L 115.755064 249.326585 
L 115.89048 233.07698 
L 116.025896 249.453535 
L 116.161313 204.25932 
L 116.432145 269.130791 
L 116.702978 222.884705 
L 116.838394 230.012043 
L 116.97381 216.646017 
L 117.244643 253.153222 
L 117.515475 207.850193 
L 117.650892 219.311968 
L 117.786308 275.387615 
L 117.921724 219.874175 
L 118.057141 222.975383 
L 118.192557 208.720707 
L 118.327973 280.465616 
L 118.46339 207.995279 
L 118.598806 244.375533 
L 118.734222 210.806315 
L 118.869638 275.242529 
L 119.140471 227.473042 
L 119.275887 227.835756 
L 119.411304 231.861886 
L 119.54672 258.684617 
L 119.817552 225.333027 
L 119.952969 227.400499 
L 120.088385 259.89971 
L 120.223801 219.946718 
L 120.359218 228.144064 
L 120.63005 221.959783 
L 120.765466 272.830478 
L 121.036299 221.089269 
L 121.307132 266.247212 
L 121.577964 214.687359 
L 121.71338 250.614221 
L 121.848797 214.578545 
L 122.119629 278.506959 
L 122.255046 225.804556 
L 122.390462 241.963483 
L 122.525878 213.127687 
L 122.661294 240.929746 
L 122.796711 222.812162 
L 122.932127 249.580485 
L 123.067543 220.980454 
L 123.20296 220.962319 
L 123.338376 274.2632 
L 123.473792 222.576398 
L 123.609208 223.446912 
L 123.744625 232.968165 
L 123.880041 261.132939 
L 124.015457 253.370851 
L 124.150874 216.664153 
L 124.28629 236.522766 
L 124.421706 218.006196 
L 124.557122 273.519636 
L 124.827955 227.745078 
L 125.098788 266.410433 
L 125.234204 219.130611 
L 125.36962 226.693206 
L 125.505036 227.726942 
L 125.775869 256.671552 
L 125.911285 220.36384 
L 126.046702 233.856816 
L 126.182118 221.850969 
L 126.317534 263.236682 
L 126.588367 214.723631 
L 126.723783 220.545197 
L 126.859199 258.466988 
L 126.994616 230.374757 
L 127.130032 231.626122 
L 127.265448 217.026867 
L 127.536281 273.428957 
L 127.671697 225.133534 
L 127.94253 220.436383 
L 128.077946 276.512029 
L 128.213362 212.039544 
L 128.348778 239.859739 
L 128.484195 218.985525 
L 128.755027 275.913551 
L 129.02586 216.682289 
L 129.296692 255.583408 
L 129.567525 211.223437 
L 129.838358 259.627674 
L 129.973774 246.67877 
L 130.10919 209.772579 
L 130.380023 252.246436 
L 130.515439 241.818397 
L 130.650855 220.87164 
L 130.786272 256.943587 
L 130.921688 260.135474 
L 131.057104 227.364228 
L 131.19252 224.299291 
L 131.327937 235.48903 
L 131.463353 228.597457 
L 131.734186 257.850373 
L 132.005018 222.957248 
L 132.140435 224.317427 
L 132.275851 271.379621 
L 132.411267 212.964466 
L 132.546683 239.061767 
L 132.6821 218.513996 
L 132.817516 274.970493 
L 132.952932 223.301826 
L 133.223765 244.919605 
L 133.359181 240.567032 
L 133.494597 219.221289 
L 133.630014 266.791283 
L 133.76543 220.218754 
L 134.036263 231.807479 
L 134.171679 243.450612 
L 134.307095 239.877875 
L 134.442511 216.029403 
L 134.713344 254.930522 
L 134.84876 223.864034 
L 135.119593 243.087897 
L 135.390425 224.571327 
L 135.525842 272.921157 
L 135.796674 226.965242 
L 136.067507 249.235906 
L 136.202923 223.265555 
L 136.338339 229.486107 
L 136.609172 247.023348 
L 136.744588 233.294608 
L 136.880005 232.696129 
L 137.015421 249.254042 
L 137.286253 225.115398 
L 137.557086 279.323066 
L 137.692502 224.716413 
L 137.827919 226.112863 
L 137.963335 254.440858 
L 138.234167 223.138605 
L 138.369584 228.180335 
L 138.505 266.700605 
L 138.775833 218.11501 
L 138.911249 272.667257 
L 139.046665 230.537979 
L 139.182081 236.976159 
L 139.317498 219.837904 
L 139.58833 263.744482 
L 139.723747 219.076204 
L 139.859163 233.131387 
L 139.994579 219.819768 
L 140.129995 227.074056 
L 140.265412 271.397756 
L 140.400828 213.70803 
L 140.671661 255.565273 
L 140.942493 219.402647 
L 141.077909 256.943587 
L 141.348742 226.729478 
L 141.484158 231.209 
L 141.619575 257.850373 
L 141.754991 258.684617 
L 141.890407 212.764973 
L 142.025823 251.394057 
L 142.16124 247.204706 
L 142.432072 230.229672 
L 142.567489 236.722259 
L 142.702905 231.063915 
L 142.838321 264.741947 
L 143.109154 221.724019 
L 143.24457 276.258129 
L 143.379986 229.341021 
L 143.515403 226.92897 
L 143.786235 260.208017 
L 143.921651 226.022184 
L 144.057068 223.446912 
L 144.3279 235.289537 
L 144.463317 232.696129 
L 144.598733 224.226748 
L 144.734149 267.027048 
L 144.869565 253.189493 
L 145.004982 218.205689 
L 145.140398 272.630985 
L 145.275814 231.789343 
L 145.411231 232.569179 
L 145.546647 238.590239 
L 145.682063 256.073073 
L 145.81748 227.400499 
L 146.088312 265.775683 
L 146.223728 225.351163 
L 146.359145 226.910835 
L 146.494561 233.657323 
L 146.629977 262.928375 
L 146.765394 220.672147 
L 147.036226 247.476741 
L 147.307059 228.597457 
L 147.442475 265.993312 
L 147.713308 224.589463 
L 147.98414 249.000142 
L 148.119556 220.001125 
L 148.254973 231.916294 
L 148.390389 260.842767 
L 148.525805 253.352715 
L 148.661222 221.941647 
L 148.932054 254.966794 
L 149.202887 220.23689 
L 149.609136 249.816249 
L 150.015384 223.229284 
L 150.150801 277.092373 
L 150.286217 235.634116 
L 150.421633 239.26126 
L 150.55705 211.150894 
L 150.692466 276.022365 
L 150.827882 215.721095 
L 151.098715 269.239606 
L 151.234131 230.755607 
L 151.369547 243.106033 
L 151.64038 247.785049 
L 151.775796 239.26126 
L 151.911212 237.828538 
L 152.046629 254.404587 
L 152.182045 228.996443 
L 152.317461 256.163751 
L 152.452878 244.212312 
L 152.588294 253.334579 
L 152.72371 237.211924 
L 152.859126 241.818397 
L 152.994543 271.071313 
L 153.129959 225.333027 
L 153.265375 266.900098 
L 153.400792 224.117934 
L 153.536208 279.05103 
L 153.671624 212.910059 
L 153.80704 274.208793 
L 153.942457 245.445541 
L 154.077873 257.959188 
L 154.213289 233.33088 
L 154.348706 259.482588 
L 154.484122 239.188717 
L 154.619538 239.89601 
L 154.754954 262.892104 
L 155.025787 227.998978 
L 155.29662 257.415116 
L 155.432036 234.056309 
L 155.567452 258.630209 
L 155.702868 236.976159 
L 155.838285 253.044408 
L 155.973701 229.413564 
L 156.109117 268.768077 
L 156.244534 232.786808 
L 156.37995 271.941828 
L 156.515366 229.395428 
L 156.650782 250.197099 
L 156.786199 236.287002 
L 156.921615 257.705288 
L 157.057031 219.656547 
L 157.192448 266.736876 
L 157.327864 218.876711 
L 157.46328 266.029583 
L 157.598696 224.462513 
L 157.734113 261.078532 
L 157.869529 236.667852 
L 158.004945 251.357786 
L 158.140362 244.974012 
L 158.275778 249.181499 
L 158.411194 244.937741 
L 158.682027 254.821708 
L 158.817443 235.960559 
L 158.952859 256.272566 
L 159.088276 243.142304 
L 159.223692 248.365392 
L 159.359108 231.299679 
L 159.494525 263.780754 
L 159.629941 230.120857 
L 159.765357 271.560978 
L 159.900773 224.589463 
L 160.03619 273.791671 
L 160.171606 232.188329 
L 160.307022 261.894639 
L 160.442439 224.498784 
L 160.577855 268.822484 
L 160.713271 236.305138 
L 160.848687 258.340038 
L 160.984104 231.281543 
L 161.11952 254.821708 
L 161.254936 241.219918 
L 161.390353 253.824244 
L 161.525769 241.491954 
L 161.796601 247.621827 
L 161.932018 241.51009 
L 162.067434 247.386063 
L 162.338267 244.992148 
L 162.473683 241.727718 
L 162.609099 257.161216 
L 162.744515 237.193788 
L 162.879932 254.640351 
L 163.015348 240.548896 
L 163.150764 253.388986 
L 163.286181 226.366763 
L 163.421597 263.708211 
L 163.557013 228.252878 
L 163.692429 266.809419 
L 163.827846 224.571327 
L 163.963262 270.400292 
L 164.098678 225.677606 
L 164.234095 261.04226 
L 164.369511 228.597457 
L 164.504927 258.884109 
L 164.640343 237.175652 
L 164.77576 257.65088 
L 164.911176 250.451 
L 165.046592 250.142692 
L 165.182009 245.608762 
L 165.317425 249.417264 
L 165.452841 250.052014 
L 165.588257 238.644646 
L 165.723674 254.894251 
L 165.85909 236.123781 
L 165.994506 252.591015 
L 166.129923 229.9395 
L 166.265339 258.049866 
L 166.400755 239.605839 
L 166.536171 254.458994 
L 166.671588 231.009508 
L 166.807004 261.132939 
L 166.94242 232.297144 
L 167.077837 261.187346 
L 167.213253 232.478501 
L 167.348669 256.181887 
L 167.484085 226.16727 
L 167.619502 263.272954 
L 167.754918 228.778814 
L 167.890334 264.361097 
L 168.025751 234.999366 
L 168.161167 258.702752 
L 168.296583 230.102722 
L 168.431999 255.003065 
L 168.567416 239.26126 
L 168.702832 251.647957 
L 168.838248 239.26126 
L 168.973665 247.930134 
L 169.244497 243.486883 
L 169.379913 248.437935 
L 169.51533 236.704124 
L 169.650746 260.334967 
L 169.786162 229.794414 
L 169.921579 260.15361 
L 170.056995 231.553579 
L 170.192411 254.767301 
L 170.327827 232.260872 
L 170.463244 260.15361 
L 170.59866 227.890164 
L 170.734076 253.2439 
L 170.869493 230.429164 
L 171.004909 261.005989 
L 171.140325 231.771208 
L 171.275741 260.02666 
L 171.411158 242.688911 
L 171.546574 254.386451 
L 171.68199 239.986689 
L 171.817407 258.702752 
L 171.952823 235.434623 
L 172.088239 254.205094 
L 172.223655 233.766137 
L 172.359072 251.176428 
L 172.494488 235.253266 
L 172.629904 249.489806 
L 172.765321 237.755995 
L 172.900737 247.240977 
L 173.036153 246.606227 
L 173.17157 243.559426 
L 173.306986 246.370463 
L 173.442402 239.406346 
L 173.577818 252.246436 
L 173.713235 235.833609 
L 173.848651 256.12748 
L 173.984067 236.540902 
L 174.119484 269.692999 
L 174.2549 233.802408 
L 174.390316 248.111492 
L 174.525732 248.782513 
L 174.661149 248.020813 
L 174.796565 236.831074 
L 174.931981 249.761842 
L 175.067398 234.527837 
L 175.202814 252.754236 
L 175.33823 237.23006 
L 175.473646 252.300843 
L 175.609063 234.382751 
L 175.744479 255.148151 
L 175.879895 227.980842 
L 176.015312 261.132939 
L 176.150728 229.975771 
L 176.286144 260.824632 
L 176.42156 222.830298 
L 176.556977 254.458994 
L 176.692393 233.385287 
L 176.827809 248.492342 
L 176.963226 247.56742 
L 177.098642 244.919605 
L 177.234058 234.545973 
L 177.369474 236.649716 
L 177.504891 224.698277 
L 177.775723 255.23883 
L 178.046556 234.237666 
L 178.181972 234.999366 
L 178.317388 260.099203 
L 178.452805 227.726942 
L 178.588221 250.106421 
L 178.723637 217.534667 
L 178.859054 272.141321 
L 178.99447 221.796562 
L 179.129886 253.080679 
L 179.265302 208.811386 
L 179.400719 281.80766 
L 179.536135 225.133534 
L 179.671551 258.593938 
L 179.806968 233.947494 
L 179.942384 255.927987 
L 180.0778 233.222065 
L 180.213216 248.655563 
L 180.348633 229.957636 
L 180.619465 249.526078 
L 180.890298 227.382363 
L 181.025714 252.699829 
L 181.16113 239.914146 
L 181.296547 248.564885 
L 181.431963 246.696905 
L 181.702796 235.343945 
L 181.973628 250.378457 
L 182.109044 239.279396 
L 182.244461 245.209776 
L 182.379877 239.533296 
L 182.515293 264.234147 
L 182.65071 229.794414 
L 182.786126 265.95704 
L 182.921542 229.540514 
L 183.056958 263.182275 
L 183.192375 226.820156 
L 183.327791 270.545378 
L 183.463207 230.773743 
L 183.598624 266.573655 
L 183.73404 226.239813 
L 183.869456 267.099591 
L 184.004872 215.70296 
L 184.140289 263.980247 
L 184.275705 236.958024 
L 184.411121 250.886257 
L 184.546538 223.084198 
L 184.681954 253.642886 
L 184.81737 240.059232 
L 184.952786 242.65264 
L 185.088203 249.217771 
L 185.223619 246.406734 
L 185.359035 230.82815 
L 185.494452 238.24566 
L 185.629868 256.12748 
L 185.765284 233.07698 
L 185.9007 263.508718 
L 186.036117 222.159276 
L 186.171533 244.55689 
L 186.306949 224.063527 
L 186.442366 273.138786 
L 186.577782 231.263408 
L 186.713198 262.728882 
L 186.848615 223.356234 
L 186.984031 265.594326 
L 187.119447 214.125152 
L 187.254863 274.916086 
L 187.39028 226.16727 
L 187.525696 268.187734 
L 187.661112 226.584392 
L 187.796529 265.249747 
L 187.931945 233.07698 
L 188.067361 256.018666 
L 188.202777 242.380604 
L 188.338194 250.904393 
L 188.47361 242.27179 
L 188.744443 247.404199 
L 188.879859 238.771596 
L 189.015275 241.129239 
L 189.150691 231.680529 
L 189.286108 241.89094 
L 189.421524 238.082438 
L 189.55694 253.2439 
L 189.692357 235.271402 
L 189.827773 259.319367 
L 189.963189 235.851745 
L 190.098605 245.391134 
L 190.234022 226.239813 
L 190.369438 268.423498 
L 190.504854 210.135294 
L 190.640271 257.959188 
L 190.775687 205.855264 
L 190.911103 281.716981 
L 191.046519 221.905376 
L 191.181936 269.275877 
L 191.317352 222.431312 
L 191.452768 250.83185 
L 191.588185 245.645034 
L 191.723601 250.868121 
L 191.859017 224.172341 
L 191.994433 245.971477 
L 192.12985 238.771596 
L 192.400682 253.570343 
L 192.536099 245.735712 
L 192.671515 219.185018 
L 192.806931 266.755012 
L 192.942347 242.326197 
L 193.21318 255.964258 
L 193.348596 234.963095 
L 193.484013 249.816249 
L 193.619429 227.436771 
L 193.754845 264.506183 
L 193.890261 231.390358 
L 194.025678 260.443781 
L 194.161094 233.947494 
L 194.29651 266.102126 
L 194.431927 219.039932 
L 194.567343 274.5171 
L 194.702759 228.815085 
L 194.838175 260.607003 
L 194.973592 233.766137 
L 195.109008 253.225765 
L 195.244424 243.341797 
L 195.379841 246.733177 
L 195.515257 234.944959 
L 195.650673 255.891716 
L 195.786089 231.444765 
L 195.921506 256.00053 
L 196.056922 236.921752 
L 196.192338 255.166287 
L 196.327755 236.232595 
L 196.463171 250.813714 
L 196.598587 237.465824 
L 196.86942 246.93267 
L 197.004836 244.865198 
L 197.275669 257.669016 
L 197.546501 235.053773 
L 197.681917 252.282707 
L 197.817334 233.657323 
L 197.95275 255.710358 
L 198.088166 237.030567 
L 198.223583 254.73103 
L 198.358999 231.988836 
L 198.494415 256.018666 
L 198.629831 234.364616 
L 198.765248 255.36578 
L 198.900664 240.331268 
L 199.03608 254.186958 
L 199.171497 238.644646 
L 199.306913 248.855056 
L 199.442329 230.556115 
L 199.577745 255.256965 
L 199.713162 234.672923 
L 199.848578 258.884109 
L 199.983994 245.209776 
L 200.119411 249.435399 
L 200.254827 239.950418 
L 200.390243 254.440858 
L 200.661076 242.997219 
L 200.796492 245.155369 
L 200.931908 237.774131 
L 201.067325 264.415504 
L 201.202741 234.437159 
L 201.338157 254.876115 
L 201.473574 238.336338 
L 201.60899 254.295772 
L 201.744406 232.804944 
L 201.879822 257.487659 
L 202.015239 233.748001 
L 202.150655 258.575802 
L 202.286071 246.860127 
L 202.421488 259.301231 
L 202.556904 237.683453 
L 202.69232 250.741171 
L 202.827736 251.08575 
L 202.963153 252.935593 
L 203.369402 238.24566 
L 203.504818 250.178964 
L 203.640234 240.276861 
L 203.911067 253.642886 
L 204.046483 245.028419 
L 204.181899 249.925064 
L 204.317316 239.950418 
L 204.452732 248.32912 
L 204.588148 247.930134 
L 204.723564 244.865198 
L 204.858981 238.028031 
L 204.994397 253.860515 
L 205.129813 236.141916 
L 205.26523 259.809031 
L 205.400646 229.214071 
L 205.536062 260.171746 
L 205.671478 233.947494 
L 205.806895 259.881574 
L 205.942311 246.29792 
L 206.077727 255.782901 
L 206.077727 255.782901 
" clip-path="url(#p73ee624225)" style="fill: none; stroke: #1f77b4; stroke-width: 1.5; stroke-linecap: square"/>
   </g>
   <g id="patch_13">
    <path d="M 64.175 288.04 
L 64.175 193.62 
" style="fill: none; stroke: #000000; stroke-width: 0.8; stroke-linejoin: miter; stroke-linecap: square"/>
   </g>
   <g id="patch_14">
    <path d="M 212.835 288.04 
L 212.835 193.62 
" style="fill: none; stroke: #000000; stroke-width: 0.8; stroke-linejoin: miter; stroke-linecap: square"/>
   </g>
   <g id="patch_15">
    <path d="M 64.175 288.04 
L 212.835 288.04 
" style="fill: none; stroke: #000000; stroke-width: 0.8; stroke-linejoin: miter; stroke-linecap: square"/>
   </g>
   <g id="patch_16">
    <path d="M 64.175 193.62 
L 212.835 193.62 
" style="fill: none; stroke: #000000; stroke-width: 0.8; stroke-linejoin: miter; stroke-linecap: square"/>
   </g>
  </g>
  <g id="axes_4">
   <g id="patch_17">
    <path d="M 282.14 288.04 
L 430.8 288.04 
L 430.8 193.62 
L 282.14 193.62 
z
" style="fill: #ffffff"/>
   </g>
   <g id="matplotlib.axis_7">
    <g id="xtick_10">
     <g id="line2d_21">
      <g>
       <use xlink:href="#mb8a47ee9e5" x="288.761856" y="288.04" style="stroke: #000000; stroke-width: 0.8"/>
      </g>
     </g>
     <g id="text_25">
      <!-- 0 -->
      <g transform="translate(285.580606 302.638438) scale(0.1 -0.1)">
       <use xlink:href="#DejaVuSans-30"/>
      </g>
     </g>
    </g>
    <g id="xtick_11">
     <g id="line2d_22">
      <g>
       <use xlink:href="#mb8a47ee9e5" x="342.928371" y="288.04" style="stroke: #000000; stroke-width: 0.8"/>
      </g>
     </g>
     <g id="text_26">
      <!-- 2000 -->
      <g transform="translate(330.203371 302.638438) scale(0.1 -0.1)">
       <use xlink:href="#DejaVuSans-32"/>
       <use xlink:href="#DejaVuSans-30" x="63.623047"/>
       <use xlink:href="#DejaVuSans-30" x="127.246094"/>
       <use xlink:href="#DejaVuSans-30" x="190.869141"/>
      </g>
     </g>
    </g>
    <g id="xtick_12">
     <g id="line2d_23">
      <g>
       <use xlink:href="#mb8a47ee9e5" x="397.094886" y="288.04" style="stroke: #000000; stroke-width: 0.8"/>
      </g>
     </g>
     <g id="text_27">
      <!-- 4000 -->
      <g transform="translate(384.369886 302.638438) scale(0.1 -0.1)">
       <use xlink:href="#DejaVuSans-34"/>
       <use xlink:href="#DejaVuSans-30" x="63.623047"/>
       <use xlink:href="#DejaVuSans-30" x="127.246094"/>
       <use xlink:href="#DejaVuSans-30" x="190.869141"/>
      </g>
     </g>
    </g>
    <g id="text_28">
     <!-- number of episodes (in 1,000) -->
     <g transform="translate(311.096406 313.277188) scale(0.06 -0.06)">
      <use xlink:href="#DejaVuSans-6e"/>
      <use xlink:href="#DejaVuSans-75" x="63.378906"/>
      <use xlink:href="#DejaVuSans-6d" x="126.757812"/>
      <use xlink:href="#DejaVuSans-62" x="224.169922"/>
      <use xlink:href="#DejaVuSans-65" x="287.646484"/>
      <use xlink:href="#DejaVuSans-72" x="349.169922"/>
      <use xlink:href="#DejaVuSans-20" x="390.283203"/>
      <use xlink:href="#DejaVuSans-6f" x="422.070312"/>
      <use xlink:href="#DejaVuSans-66" x="483.251953"/>
      <use xlink:href="#DejaVuSans-20" x="518.457031"/>
      <use xlink:href="#DejaVuSans-65" x="550.244141"/>
      <use xlink:href="#DejaVuSans-70" x="611.767578"/>
      <use xlink:href="#DejaVuSans-69" x="675.244141"/>
      <use xlink:href="#DejaVuSans-73" x="703.027344"/>
      <use xlink:href="#DejaVuSans-6f" x="755.126953"/>
      <use xlink:href="#DejaVuSans-64" x="816.308594"/>
      <use xlink:href="#DejaVuSans-65" x="879.785156"/>
      <use xlink:href="#DejaVuSans-73" x="941.308594"/>
      <use xlink:href="#DejaVuSans-20" x="993.408203"/>
      <use xlink:href="#DejaVuSans-28" x="1025.195312"/>
      <use xlink:href="#DejaVuSans-69" x="1064.208984"/>
      <use xlink:href="#DejaVuSans-6e" x="1091.992188"/>
      <use xlink:href="#DejaVuSans-20" x="1155.371094"/>
      <use xlink:href="#DejaVuSans-31" x="1187.158203"/>
      <use xlink:href="#DejaVuSans-2c" x="1250.78125"/>
      <use xlink:href="#DejaVuSans-30" x="1282.568359"/>
      <use xlink:href="#DejaVuSans-30" x="1346.191406"/>
      <use xlink:href="#DejaVuSans-30" x="1409.814453"/>
      <use xlink:href="#DejaVuSans-29" x="1473.4375"/>
     </g>
    </g>
   </g>
   <g id="matplotlib.axis_8">
    <g id="ytick_9">
     <g id="line2d_24">
      <g>
       <use xlink:href="#me4005b934b" x="282.14" y="266.398823" style="stroke: #000000; stroke-width: 0.8"/>
      </g>
     </g>
     <g id="text_29">
      <!-- 50 -->
      <g transform="translate(254.035312 270.198041) scale(0.1 -0.1)">
       <defs>
        <path id="DejaVuSans-2212" d="M 678 2272 
L 4684 2272 
L 4684 1741 
L 678 1741 
L 678 2272 
z
" transform="scale(0.015625)"/>
       </defs>
       <use xlink:href="#DejaVuSans-2212"/>
       <use xlink:href="#DejaVuSans-35" x="83.789062"/>
       <use xlink:href="#DejaVuSans-30" x="147.412109"/>
      </g>
     </g>
    </g>
    <g id="ytick_10">
     <g id="line2d_25">
      <g>
       <use xlink:href="#me4005b934b" x="282.14" y="240.824885" style="stroke: #000000; stroke-width: 0.8"/>
      </g>
     </g>
     <g id="text_30">
      <!-- 0 -->
      <g transform="translate(268.7775 244.624104) scale(0.1 -0.1)">
       <use xlink:href="#DejaVuSans-30"/>
      </g>
     </g>
    </g>
    <g id="ytick_11">
     <g id="line2d_26">
      <g>
       <use xlink:href="#me4005b934b" x="282.14" y="215.250948" style="stroke: #000000; stroke-width: 0.8"/>
      </g>
     </g>
     <g id="text_31">
      <!-- 50 -->
      <g transform="translate(262.415 219.050167) scale(0.1 -0.1)">
       <use xlink:href="#DejaVuSans-35"/>
       <use xlink:href="#DejaVuSans-30" x="63.623047"/>
      </g>
     </g>
    </g>
    <g id="text_32">
     <!-- trend in comparison to previous 5,000 episodes -->
     <g transform="translate(248.371562 336.411875) rotate(-90) scale(0.08 -0.08)">
      <defs>
       <path id="DejaVuSans-61" d="M 2194 1759 
Q 1497 1759 1228 1600 
Q 959 1441 959 1056 
Q 959 750 1161 570 
Q 1363 391 1709 391 
Q 2188 391 2477 730 
Q 2766 1069 2766 1631 
L 2766 1759 
L 2194 1759 
z
M 3341 1997 
L 3341 0 
L 2766 0 
L 2766 531 
Q 2569 213 2275 61 
Q 1981 -91 1556 -91 
Q 1019 -91 701 211 
Q 384 513 384 1019 
Q 384 1609 779 1909 
Q 1175 2209 1959 2209 
L 2766 2209 
L 2766 2266 
Q 2766 2663 2505 2880 
Q 2244 3097 1772 3097 
Q 1472 3097 1187 3025 
Q 903 2953 641 2809 
L 641 3341 
Q 956 3463 1253 3523 
Q 1550 3584 1831 3584 
Q 2591 3584 2966 3190 
Q 3341 2797 3341 1997 
z
" transform="scale(0.015625)"/>
      </defs>
      <use xlink:href="#DejaVuSans-74"/>
      <use xlink:href="#DejaVuSans-72" x="39.208984"/>
      <use xlink:href="#DejaVuSans-65" x="78.072266"/>
      <use xlink:href="#DejaVuSans-6e" x="139.595703"/>
      <use xlink:href="#DejaVuSans-64" x="202.974609"/>
      <use xlink:href="#DejaVuSans-20" x="266.451172"/>
      <use xlink:href="#DejaVuSans-69" x="298.238281"/>
      <use xlink:href="#DejaVuSans-6e" x="326.021484"/>
      <use xlink:href="#DejaVuSans-20" x="389.400391"/>
      <use xlink:href="#DejaVuSans-63" x="421.1875"/>
      <use xlink:href="#DejaVuSans-6f" x="476.167969"/>
      <use xlink:href="#DejaVuSans-6d" x="537.349609"/>
      <use xlink:href="#DejaVuSans-70" x="634.761719"/>
      <use xlink:href="#DejaVuSans-61" x="698.238281"/>
      <use xlink:href="#DejaVuSans-72" x="759.517578"/>
      <use xlink:href="#DejaVuSans-69" x="800.630859"/>
      <use xlink:href="#DejaVuSans-73" x="828.414062"/>
      <use xlink:href="#DejaVuSans-6f" x="880.513672"/>
      <use xlink:href="#DejaVuSans-6e" x="941.695312"/>
      <use xlink:href="#DejaVuSans-20" x="1005.074219"/>
      <use xlink:href="#DejaVuSans-74" x="1036.861328"/>
      <use xlink:href="#DejaVuSans-6f" x="1076.070312"/>
      <use xlink:href="#DejaVuSans-20" x="1137.251953"/>
      <use xlink:href="#DejaVuSans-70" x="1169.039062"/>
      <use xlink:href="#DejaVuSans-72" x="1232.515625"/>
      <use xlink:href="#DejaVuSans-65" x="1271.378906"/>
      <use xlink:href="#DejaVuSans-76" x="1332.902344"/>
      <use xlink:href="#DejaVuSans-69" x="1392.082031"/>
      <use xlink:href="#DejaVuSans-6f" x="1419.865234"/>
      <use xlink:href="#DejaVuSans-75" x="1481.046875"/>
      <use xlink:href="#DejaVuSans-73" x="1544.425781"/>
      <use xlink:href="#DejaVuSans-20" x="1596.525391"/>
      <use xlink:href="#DejaVuSans-35" x="1628.3125"/>
      <use xlink:href="#DejaVuSans-2c" x="1691.935547"/>
      <use xlink:href="#DejaVuSans-30" x="1723.722656"/>
      <use xlink:href="#DejaVuSans-30" x="1787.345703"/>
      <use xlink:href="#DejaVuSans-30" x="1850.96875"/>
      <use xlink:href="#DejaVuSans-20" x="1914.591797"/>
      <use xlink:href="#DejaVuSans-65" x="1946.378906"/>
      <use xlink:href="#DejaVuSans-70" x="2007.902344"/>
      <use xlink:href="#DejaVuSans-69" x="2071.378906"/>
      <use xlink:href="#DejaVuSans-73" x="2099.162109"/>
      <use xlink:href="#DejaVuSans-6f" x="2151.261719"/>
      <use xlink:href="#DejaVuSans-64" x="2212.443359"/>
      <use xlink:href="#DejaVuSans-65" x="2275.919922"/>
      <use xlink:href="#DejaVuSans-73" x="2337.443359"/>
     </g>
    </g>
   </g>
   <g id="line2d_27">
    <path d="M 288.897273 240.46685 
L 289.032689 241.152232 
L 289.168105 240.824885 
L 289.574354 240.794196 
L 289.845187 240.814656 
L 290.386852 240.824885 
L 290.522268 240.732819 
L 290.657684 240.886263 
L 291.334766 240.804426 
L 292.147264 240.824885 
L 292.959761 240.804426 
L 293.230594 240.824885 
L 293.907675 240.794196 
L 294.44934 240.896492 
L 294.584757 240.794196 
L 294.855589 240.845344 
L 295.261838 240.783967 
L 295.532671 240.824885 
L 295.93892 240.794196 
L 296.345169 240.855574 
L 296.886834 240.743049 
L 297.02225 240.886263 
L 297.563915 240.773737 
L 297.699331 240.916951 
L 297.970164 240.835115 
L 298.10558 240.794196 
L 298.240997 240.886263 
L 298.511829 240.835115 
L 298.782662 240.722589 
L 298.918078 240.916951 
L 299.053494 240.804426 
L 299.188911 240.855574 
L 299.324327 240.753278 
L 299.730576 240.886263 
L 300.001408 240.794196 
L 300.136825 240.865804 
L 300.272241 240.763508 
L 300.407657 240.906722 
L 300.543073 240.753278 
L 300.67849 240.876033 
L 300.813906 240.794196 
L 301.084739 240.865804 
L 301.355571 240.773737 
L 301.490987 240.835115 
L 301.626404 240.753278 
L 301.76182 240.937411 
L 302.032653 240.804426 
L 302.168069 240.753278 
L 302.303485 240.906722 
L 302.574318 240.804426 
L 302.709734 240.855574 
L 302.84515 240.753278 
L 302.980567 240.906722 
L 303.251399 240.783967 
L 303.386815 240.855574 
L 303.522232 240.671442 
L 303.657648 240.988558 
L 303.928481 240.743049 
L 304.199313 240.886263 
L 304.334729 240.794196 
L 304.605562 240.835115 
L 305.147227 240.753278 
L 305.41806 240.855574 
L 305.959725 240.783967 
L 306.365974 240.814656 
L 306.50139 240.794196 
L 306.636806 240.916951 
L 306.772223 240.773737 
L 307.178471 240.876033 
L 307.449304 240.763508 
L 307.58472 240.916951 
L 307.720137 240.783967 
L 308.261802 240.835115 
L 309.886797 240.783967 
L 310.022214 240.886263 
L 310.15763 240.753278 
L 310.293046 240.896492 
L 310.428462 240.794196 
L 310.563879 240.835115 
L 310.699295 240.722589 
L 310.970128 240.916951 
L 311.24096 240.70213 
L 311.376376 240.773737 
L 311.511793 240.988558 
L 311.647209 240.783967 
L 311.782625 240.824885 
L 311.918042 240.722589 
L 312.188874 240.95787 
L 312.32429 240.753278 
L 312.459707 240.876033 
L 312.595123 240.620294 
L 312.730539 240.968099 
L 312.865956 240.824885 
L 313.001372 240.845344 
L 313.136788 240.671442 
L 313.407621 224.651927 
L 313.81387 241.745547 
L 313.949286 240.170192 
L 314.084702 266.582955 
L 314.355535 231.209085 
L 314.490951 261.601152 
L 314.626367 226.319348 
L 314.761784 221.081806 
L 314.8972 256.230625 
L 315.032616 226.053379 
L 315.168032 250.5839 
L 315.303449 228.805135 
L 315.438865 246.23633 
L 315.574281 232.682144 
L 315.709698 247.811685 
L 315.845114 239.065398 
L 315.98053 243.095851 
L 316.115946 273.078735 
L 316.251363 211.772892 
L 316.386779 243.873299 
L 316.522195 228.713068 
L 316.793028 274.797304 
L 316.928444 205.297571 
L 317.06386 249.397269 
L 317.199277 251.392036 
L 317.334693 225.562359 
L 317.470109 238.748281 
L 317.605526 240.773737 
L 317.740942 240.436161 
L 317.876358 270.163306 
L 318.011774 212.478733 
L 318.147191 243.208376 
L 318.282607 235.945378 
L 318.418023 243.494804 
L 318.55344 237.735554 
L 318.688856 243.781232 
L 318.824272 265.836196 
L 318.959688 226.830827 
L 319.095105 232.221813 
L 319.230521 255.494096 
L 319.365937 219.608747 
L 319.501354 256.987614 
L 319.63677 225.603278 
L 319.772186 248.210638 
L 319.907602 234.574615 
L 320.043019 264.52681 
L 320.178435 211.83427 
L 320.313851 257.713914 
L 320.449268 227.22978 
L 320.584684 273.723198 
L 320.7201 203.957497 
L 320.855516 268.004866 
L 321.126349 212.090009 
L 321.261765 283.748182 
L 321.397182 222.074074 
L 321.532598 236.784203 
L 321.668014 231.004493 
L 321.80343 257.580929 
L 321.938847 225.235013 
L 322.074263 253.611854 
L 322.209679 224.324581 
L 322.345096 249.84737 
L 322.480512 252.005811 
L 322.615928 228.395952 
L 322.886761 243.750544 
L 323.157593 237.848079 
L 323.29301 253.335655 
L 323.428426 223.189098 
L 323.563842 267.033056 
L 323.699259 213.941562 
L 323.834675 258.307229 
L 323.970091 217.583291 
L 324.105507 281.047574 
L 324.240924 218.002703 
L 324.37634 236.733055 
L 324.511756 227.47529 
L 324.647173 272.7207 
L 324.918005 215.527146 
L 325.188838 253.335655 
L 325.324254 221.143183 
L 325.45967 264.424515 
L 325.595087 241.418201 
L 325.730503 243.638018 
L 325.865919 236.242036 
L 326.001335 218.360739 
L 326.136752 263.08444 
L 326.272168 216.969516 
L 326.407584 282.295582 
L 326.678417 222.626471 
L 326.813833 227.874243 
L 327.084666 276.884137 
L 327.220082 207.067288 
L 327.355498 255.88282 
L 327.490915 223.659658 
L 327.761747 251.944433 
L 328.03258 220.478261 
L 328.438829 256.159018 
L 328.574245 262.214926 
L 328.709661 197.911818 
L 328.980494 275.298553 
L 329.11591 216.938828 
L 329.386743 247.259288 
L 329.657575 229.807633 
L 329.792991 240.22134 
L 329.928408 232.733291 
L 330.063824 283.338999 
L 330.334657 206.320529 
L 330.605489 263.739133 
L 330.876322 225.715803 
L 331.011738 236.569382 
L 331.147154 230.278193 
L 331.282571 260.813475 
L 331.417987 247.167222 
L 331.553403 214.534878 
L 331.688819 270.910065 
L 331.824236 210.709016 
L 331.959652 278.991429 
L 332.095068 219.711042 
L 332.230485 238.103818 
L 332.365901 224.856519 
L 332.501317 272.331976 
L 332.636733 253.581165 
L 332.77215 214.759928 
L 332.907566 223.62897 
L 333.178399 270.572489 
L 333.313815 205.348719 
L 333.449231 257.898046 
L 333.584647 217.061583 
L 333.720064 264.710943 
L 333.85548 231.659186 
L 333.990896 250.062191 
L 334.126313 215.332784 
L 334.261729 268.270835 
L 334.667978 225.766951 
L 334.803394 244.845108 
L 334.93881 233.285688 
L 335.209643 253.038998 
L 335.345059 224.038153 
L 335.480475 232.058139 
L 335.751308 272.454731 
L 335.886724 209.512156 
L 336.022141 242.574143 
L 336.157557 232.784439 
L 336.292973 281.293084 
L 336.42839 199.947504 
L 336.563806 261.345413 
L 336.699222 221.889942 
L 336.834638 277.170565 
L 336.970055 230.237275 
L 337.105471 224.467795 
L 337.240887 241.029477 
L 337.376304 243.095851 
L 337.51172 255.954427 
L 337.782552 229.306384 
L 338.053385 259.156284 
L 338.188801 218.289132 
L 338.324218 245.448653 
L 338.459634 238.277721 
L 338.59505 239.883764 
L 338.730466 269.518843 
L 338.865883 217.235485 
L 339.136715 257.857128 
L 339.272132 249.264285 
L 339.407548 222.64693 
L 339.542964 229.920158 
L 339.67838 261.089673 
L 339.813797 220.49872 
L 339.949213 256.547742 
L 340.084629 261.16128 
L 340.220046 211.09774 
L 340.355462 249.939437 
L 340.490878 224.559861 
L 340.626294 256.506824 
L 340.761711 230.60554 
L 340.897127 255.923738 
L 341.032543 224.692845 
L 341.16796 240.814656 
L 341.303376 270.889606 
L 341.438792 211.670597 
L 341.574208 241.315905 
L 341.709625 246.195412 
L 341.845041 256.711415 
L 342.115874 220.120225 
L 342.25129 252.02627 
L 342.386706 230.380489 
L 342.522122 272.137614 
L 342.657539 221.910401 
L 343.063788 254.645041 
L 343.199204 214.156383 
L 343.33462 245.090618 
L 343.470036 241.407971 
L 343.605453 254.266547 
L 343.740869 243.709625 
L 343.876285 220.345276 
L 344.011702 248.435689 
L 344.147118 234.052907 
L 344.282534 264.168775 
L 344.553367 223.710806 
L 344.824199 262.214926 
L 344.959616 224.979274 
L 345.095032 241.530726 
L 345.230448 232.590077 
L 345.365864 257.468404 
L 345.501281 255.995345 
L 345.636697 213.583527 
L 345.772113 239.004021 
L 345.90753 239.99629 
L 346.042946 272.454731 
L 346.178362 204.458746 
L 346.313778 256.517053 
L 346.449195 229.050644 
L 346.720027 259.913272 
L 346.855444 217.419618 
L 347.126276 253.325426 
L 347.261692 250.266783 
L 347.397109 227.792407 
L 347.532525 228.835823 
L 347.667941 257.089909 
L 347.803358 251.862597 
L 348.07419 220.0077 
L 348.209606 254.573434 
L 348.345023 251.034001 
L 348.615855 229.009726 
L 348.751272 261.17151 
L 349.022104 222.340043 
L 349.292937 247.136533 
L 349.428353 236.937647 
L 349.563769 248.926709 
L 349.699186 249.223366 
L 349.834602 228.498247 
L 350.105435 241.592103 
L 350.240851 267.370632 
L 350.376267 207.875424 
L 350.511683 255.545244 
L 350.6471 229.234777 
L 350.782516 272.669552 
L 350.917932 211.680826 
L 351.053349 250.624818 
L 351.459597 228.784675 
L 351.595014 267.65706 
L 351.73043 214.555337 
L 351.865846 244.118808 
L 352.001263 244.06766 
L 352.136679 247.392272 
L 352.407511 227.372994 
L 352.542928 251.811449 
L 352.678344 251.78076 
L 352.81376 223.301623 
L 352.949177 246.328397 
L 353.084593 246.164723 
L 353.220009 233.336836 
L 353.355425 237.868538 
L 353.490842 268.096932 
L 353.626258 220.928362 
L 353.897091 246.870564 
L 354.032507 247.341124 
L 354.167923 226.176134 
L 354.438756 248.89602 
L 354.709588 233.081097 
L 354.980421 250.164487 
L 355.251253 232.385486 
L 355.522086 259.463171 
L 355.657502 210.023635 
L 355.928335 256.803481 
L 356.063751 227.925391 
L 356.334584 243.668707 
L 356.47 262.552502 
L 356.605416 225.818099 
L 356.740833 228.42664 
L 356.876249 271.595447 
L 357.011665 217.061583 
L 357.147081 244.456384 
L 357.282498 231.157937 
L 357.417914 260.762327 
L 357.55333 245.653245 
L 357.688747 215.629442 
L 357.824163 248.752806 
L 357.959579 233.316377 
L 358.230412 265.825966 
L 358.365828 208.284607 
L 358.501244 255.86236 
L 358.636661 249.397269 
L 358.772077 224.201826 
L 358.907493 237.050172 
L 359.042909 262.000105 
L 359.178326 229.316613 
L 359.449158 243.35159 
L 359.584575 255.852131 
L 359.855407 214.923601 
L 359.990823 262.61388 
L 360.12624 238.461853 
L 360.261656 235.055405 
L 360.397072 237.019483 
L 360.532489 244.487073 
L 360.667905 237.633258 
L 360.803321 259.821206 
L 360.938737 225.613507 
L 361.074154 231.771711 
L 361.20957 271.585217 
L 361.344986 214.360975 
L 361.615819 255.535014 
L 361.751235 244.886026 
L 361.886651 221.542136 
L 362.157484 245.090618 
L 362.2929 243.239065 
L 362.563733 236.047674 
L 362.699149 264.966682 
L 362.969982 221.092035 
L 363.105398 271.52384 
L 363.240814 217.787882 
L 363.376231 241.264757 
L 363.511647 244.221104 
L 363.647063 250.686195 
L 363.78248 224.651927 
L 364.053312 254.154021 
L 364.188728 218.023163 
L 364.324145 241.704629 
L 364.459561 244.630287 
L 364.594977 257.335419 
L 364.730394 216.989976 
L 364.86581 249.325662 
L 365.001226 247.44342 
L 365.136642 232.191124 
L 365.272059 238.809659 
L 365.407475 261.918269 
L 365.542891 226.073838 
L 365.678308 232.221813 
L 365.813724 249.018775 
L 365.94914 246.400004 
L 366.084556 224.467795 
L 366.355389 257.141057 
L 366.626222 223.107261 
L 366.761638 249.724615 
L 366.897054 250.553211 
L 367.03247 228.825594 
L 367.167887 233.234541 
L 367.303303 247.136533 
L 367.438719 245.561178 
L 367.574136 246.461381 
L 367.709552 235.597572 
L 367.844968 234.717829 
L 367.980384 237.162697 
L 368.115801 271.206723 
L 368.251217 217.440077 
L 368.386633 242.8708 
L 368.52205 224.969044 
L 368.657466 277.416075 
L 368.792882 206.811548 
L 368.928298 259.24835 
L 369.063715 252.588896 
L 369.199131 219.117727 
L 369.334547 247.791226 
L 369.469964 242.031975 
L 369.60538 242.257026 
L 369.740796 236.016985 
L 369.876212 240.016749 
L 370.011629 250.174717 
L 370.147045 226.493251 
L 370.282461 256.148789 
L 370.417878 234.083595 
L 370.553294 245.970361 
L 370.68871 231.730793 
L 370.959543 257.32519 
L 371.094959 215.025897 
L 371.230375 264.271071 
L 371.365792 216.693318 
L 371.501208 271.810268 
L 371.636624 203.517625 
L 371.77204 275.400849 
L 371.907457 224.600779 
L 372.042873 247.883292 
L 372.178289 226.933122 
L 372.313706 255.575932 
L 372.449122 229.377991 
L 372.719954 253.795986 
L 372.855371 228.365263 
L 372.990787 233.602805 
L 373.126203 248.067424 
L 373.26162 250.174717 
L 373.397036 227.649193 
L 373.532452 254.685959 
L 373.667868 228.610773 
L 373.803285 249.888289 
L 373.938701 227.495749 
L 374.074117 263.023063 
L 374.209534 220.529408 
L 374.34495 262.910538 
L 374.480366 216.826302 
L 374.615782 252.558208 
L 374.751199 232.978801 
L 374.886615 252.906013 
L 375.022031 219.363237 
L 375.157448 267.380862 
L 375.292864 213.829037 
L 375.42828 267.42178 
L 375.563696 217.378699 
L 375.699113 261.478397 
L 375.834529 227.055877 
L 375.969945 249.110841 
L 376.105362 237.224075 
L 376.240778 243.198147 
L 376.376194 238.431165 
L 376.51161 244.006283 
L 376.647027 243.218606 
L 376.782443 230.186127 
L 376.917859 252.282009 
L 377.053276 233.418673 
L 377.188692 243.771003 
L 377.324108 231.198855 
L 377.459525 259.146054 
L 377.594941 221.838794 
L 377.730357 264.199464 
L 377.865773 214.330286 
L 378.00119 268.577722 
L 378.136606 217.35824 
L 378.272022 257.580929 
L 378.407439 219.731502 
L 378.542855 265.825966 
L 378.678271 222.483257 
L 378.813687 253.253819 
L 378.949104 225.562359 
L 379.08452 254.102874 
L 379.219936 233.152704 
L 379.355353 247.93444 
L 379.490769 233.868774 
L 379.626185 242.175189 
L 379.761601 242.932178 
L 379.897018 237.377518 
L 380.032434 244.139268 
L 380.16785 240.159963 
L 380.303267 240.139504 
L 380.438683 238.983562 
L 380.574099 249.530254 
L 380.709515 229.562123 
L 380.844932 250.665736 
L 380.980348 232.876505 
L 381.115764 248.067424 
L 381.251181 225.582818 
L 381.386597 261.88758 
L 381.522013 220.826066 
L 381.657429 262.572962 
L 381.792846 217.000205 
L 381.928262 266.675021 
L 382.063678 215.598753 
L 382.199095 260.772556 
L 382.334511 222.524176 
L 382.469927 257.908275 
L 382.605343 228.580084 
L 382.74076 252.374075 
L 382.876176 236.763744 
L 383.011592 240.650982 
L 383.147009 238.267491 
L 383.282425 242.973096 
L 383.417841 241.18292 
L 383.553257 234.390483 
L 383.688674 249.990584 
L 383.82409 230.237275 
L 383.959506 250.113339 
L 384.094923 228.048146 
L 384.230339 256.680726 
L 384.365755 230.421407 
L 384.501171 249.202907 
L 384.636588 227.598045 
L 384.772004 257.816209 
L 384.90742 224.559861 
L 385.042837 257.120598 
L 385.178253 224.631468 
L 385.313669 254.19494 
L 385.449085 223.894939 
L 385.584502 261.754596 
L 385.719918 221.368234 
L 385.855334 260.895311 
L 385.990751 224.263203 
L 386.126167 254.19494 
L 386.261583 224.692845 
L 386.396999 254.870092 
L 386.532416 231.945614 
L 386.667832 247.811685 
L 386.803248 233.838086 
L 386.938665 245.714622 
L 387.074081 239.761009 
L 387.209497 239.382515 
L 387.344913 243.617559 
L 387.48033 234.20635 
L 387.615746 254.154021 
L 387.751162 223.598281 
L 387.886579 257.949194 
L 388.021995 224.692845 
L 388.157411 253.918741 
L 388.292827 228.129983 
L 388.428244 256.557972 
L 388.56366 222.626471 
L 388.699076 255.125831 
L 388.834493 227.95608 
L 388.969909 258.071949 
L 389.105325 224.33481 
L 389.240741 256.762563 
L 389.376158 231.045412 
L 389.511574 247.422961 
L 389.64699 232.702603 
L 389.782407 251.381807 
L 389.917823 227.700341 
L 390.053239 251.412495 
L 390.188655 229.296154 
L 390.324072 250.645277 
L 390.459488 231.843318 
L 390.594904 248.855102 
L 390.730321 234.20635 
L 390.865737 246.174953 
L 391.13657 239.106317 
L 391.271986 242.410469 
L 391.407402 236.896728 
L 391.542818 248.067424 
L 391.678235 231.56712 
L 391.813651 252.27178 
L 391.949067 229.776944 
L 392.084484 259.524548 
L 392.2199 220.580556 
L 392.355316 248.89602 
L 392.490732 241.203379 
L 392.626149 240.395243 
L 392.761565 234.513237 
L 392.896981 248.118572 
L 393.032398 232.232042 
L 393.167814 251.105608 
L 393.30323 232.068369 
L 393.438646 249.325662 
L 393.574063 230.718065 
L 393.709479 252.537749 
L 393.844895 225.500982 
L 393.980312 259.524548 
L 394.115728 223.250475 
L 394.251144 258.225392 
L 394.38656 219.393926 
L 394.521977 258.665264 
L 394.657393 228.938119 
L 394.792809 249.346121 
L 394.928226 240.303177 
L 395.063642 239.331367 
L 395.199058 234.973568 
L 395.334474 242.011516 
L 395.469891 234.083595 
L 395.605307 249.520024 
L 395.740723 249.356351 
L 395.87614 233.919922 
L 396.011556 235.884 
L 396.146972 241.254527 
L 396.282388 254.982617 
L 396.417805 222.565094 
L 396.553221 253.448181 
L 396.688637 222.452569 
L 396.824054 271.626135 
L 396.95947 212.427585 
L 397.094886 258.470902 
L 397.230302 215.854493 
L 397.365719 281.998924 
L 397.501135 208.857463 
L 397.636551 259.698451 
L 397.771968 226.922893 
L 397.907384 253.22313 
L 398.0428 228.017457 
L 398.178216 249.530254 
L 398.313633 230.278193 
L 398.449049 247.893522 
L 398.584465 244.79396 
L 398.719882 232.753751 
L 398.855298 236.405709 
L 398.990714 255.105372 
L 399.12613 233.613035 
L 399.261547 245.704392 
L 399.532379 236.354561 
L 399.667796 238.891496 
L 399.803212 246.73758 
L 399.938628 243.392509 
L 400.074044 234.564385 
L 400.209461 244.169956 
L 400.344877 237.623028 
L 400.480293 254.757566 
L 400.61571 221.398922 
L 400.751126 261.222658 
L 400.886542 220.283899 
L 401.021958 259.800747 
L 401.157375 220.314587 
L 401.292791 265.48839 
L 401.428207 218.391427 
L 401.563624 261.018066 
L 401.69904 218.07431 
L 401.834456 263.872118 
L 401.969872 211.83427 
L 402.105289 268.056014 
L 402.240705 225.582818 
L 402.376121 248.681199 
L 402.511538 225.142947 
L 402.646954 258.061719 
L 402.78237 233.162934 
L 403.053203 244.527991 
L 403.324035 232.03768 
L 403.594868 250.911246 
L 403.730284 227.823095 
L 403.8657 257.990112 
L 404.001117 217.501454 
L 404.136533 253.45841 
L 404.271949 229.265465 
L 404.407366 268.506115 
L 404.542782 217.204797 
L 404.678198 258.573198 
L 404.813615 218.616478 
L 404.949031 264.649565 
L 405.084447 211.793351 
L 405.219863 275.114421 
L 405.35528 213.327788 
L 405.490696 264.52681 
L 405.626112 217.35824 
L 405.761529 262.634339 
L 405.896945 222.677619 
L 406.032361 253.765298 
L 406.167777 233.132245 
L 406.303194 245.632785 
L 406.43861 235.955608 
L 406.574026 242.62529 
L 406.709443 241.91945 
L 406.844859 235.955608 
L 406.980275 242.15473 
L 407.115691 235.495277 
L 407.251108 246.584136 
L 407.386524 238.676674 
L 407.52194 249.37681 
L 407.657357 230.687376 
L 407.792773 254.389302 
L 407.928189 227.587815 
L 408.063605 246.205642 
L 408.199022 230.022454 
L 408.334438 264.618877 
L 408.469854 207.947031 
L 408.605271 267.800274 
L 408.740687 211.435316 
L 408.876103 283.615197 
L 409.011519 207.087747 
L 409.146936 267.544535 
L 409.282352 214.401893 
L 409.417768 256.8444 
L 409.553185 237.899227 
L 409.688601 243.771003 
L 409.824017 225.766951 
L 409.959433 253.120834 
L 410.09485 236.763744 
L 410.230266 246.400004 
L 410.365682 243.5971 
L 410.636515 225.848787 
L 410.771931 267.65706 
L 410.907347 227.045648 
L 411.042764 243.760773 
L 411.17818 245.581638 
L 411.313596 228.979037 
L 411.449013 249.202907 
L 411.584429 228.20159 
L 411.719845 261.734136 
L 411.855261 222.145681 
L 411.990678 257.212664 
L 412.126094 225.879476 
L 412.26151 258.961922 
L 412.396927 214.279138 
L 412.532343 272.117155 
L 412.667759 215.046356 
L 412.803175 258.75733 
L 412.938592 225.685114 
L 413.074008 251.801219 
L 413.209424 235.249767 
L 413.344841 242.737816 
L 413.480257 234.175661 
L 413.615673 252.640044 
L 413.751089 227.035418 
L 413.886506 254.67573 
L 414.021922 230.063372 
L 414.157338 251.115838 
L 414.292755 230.145209 
L 414.428171 249.049463 
L 414.563587 233.295918 
L 414.699003 244.824649 
L 414.969836 239.658714 
L 415.105252 244.487073 
L 415.240669 244.384777 
L 415.511501 233.582346 
L 415.646917 250.542981 
L 415.782334 230.319112 
L 415.91775 253.264048 
L 416.053166 230.288423 
L 416.188583 250.80895 
L 416.323999 227.996998 
L 416.459415 254.379072 
L 416.594831 228.610773 
L 416.730248 252.670733 
L 416.865664 232.344568 
L 417.00108 248.64028 
L 417.136497 232.058139 
L 417.271913 246.584136 
L 417.407329 230.503244 
L 417.542745 254.757566 
L 417.678162 229.214318 
L 417.813578 254.481368 
L 417.948994 233.111786 
L 418.084411 243.208376 
L 418.219827 235.474817 
L 418.355243 248.998316 
L 418.49066 235.638491 
L 418.761492 242.042205 
L 418.896908 236.661448 
L 419.032325 255.852131 
L 419.167741 223.915398 
L 419.303157 252.353616 
L 419.438574 231.495513 
L 419.57399 249.826911 
L 419.709406 228.702839 
L 419.844822 254.747337 
L 419.980239 227.434372 
L 420.115655 254.829173 
L 420.251071 234.21658 
L 420.386488 247.842374 
L 420.521904 228.631232 
L 420.65732 248.190179 
L 420.792736 241.019247 
L 420.928153 241.868302 
L 421.063569 238.359558 
L 421.198985 240.323636 
L 421.334402 235.505506 
L 421.469818 247.555946 
L 421.605234 235.239537 
L 421.74065 243.893758 
L 421.876067 245.295209 
L 422.011483 235.965837 
L 422.146899 243.58687 
L 422.282316 235.198619 
L 422.417732 245.550949 
L 422.688564 239.096087 
L 422.823981 236.968335 
L 422.959397 249.755304 
L 423.094813 230.83059 
L 423.23023 254.174481 
L 423.365646 223.567592 
L 423.501062 258.28677 
L 423.636478 226.03292 
L 423.771895 255.453177 
L 423.907311 233.162934 
L 424.042727 246.174953 
L 424.042727 246.174953 
" clip-path="url(#p0d3e1f959d)" style="fill: none; stroke: #1f77b4; stroke-width: 1.5; stroke-linecap: square"/>
   </g>
   <g id="patch_18">
    <path d="M 282.14 288.04 
L 282.14 193.62 
" style="fill: none; stroke: #000000; stroke-width: 0.8; stroke-linejoin: miter; stroke-linecap: square"/>
   </g>
   <g id="patch_19">
    <path d="M 430.8 288.04 
L 430.8 193.62 
" style="fill: none; stroke: #000000; stroke-width: 0.8; stroke-linejoin: miter; stroke-linecap: square"/>
   </g>
   <g id="patch_20">
    <path d="M 282.14 288.04 
L 430.8 288.04 
" style="fill: none; stroke: #000000; stroke-width: 0.8; stroke-linejoin: miter; stroke-linecap: square"/>
   </g>
   <g id="patch_21">
    <path d="M 282.14 193.62 
L 430.8 193.62 
" style="fill: none; stroke: #000000; stroke-width: 0.8; stroke-linejoin: miter; stroke-linecap: square"/>
   </g>
  </g>
  <g id="text_33">
   <!-- Learning progress of DQN learner -->
   <g transform="translate(96.33875 19.0695) scale(0.16 -0.16)">
    <defs>
     <path id="DejaVuSans-4c" d="M 628 4666 
L 1259 4666 
L 1259 531 
L 3531 531 
L 3531 0 
L 628 0 
L 628 4666 
z
" transform="scale(0.015625)"/>
     <path id="DejaVuSans-67" d="M 2906 1791 
Q 2906 2416 2648 2759 
Q 2391 3103 1925 3103 
Q 1463 3103 1205 2759 
Q 947 2416 947 1791 
Q 947 1169 1205 825 
Q 1463 481 1925 481 
Q 2391 481 2648 825 
Q 2906 1169 2906 1791 
z
M 3481 434 
Q 3481 -459 3084 -895 
Q 2688 -1331 1869 -1331 
Q 1566 -1331 1297 -1286 
Q 1028 -1241 775 -1147 
L 775 -588 
Q 1028 -725 1275 -790 
Q 1522 -856 1778 -856 
Q 2344 -856 2625 -561 
Q 2906 -266 2906 331 
L 2906 616 
Q 2728 306 2450 153 
Q 2172 0 1784 0 
Q 1141 0 747 490 
Q 353 981 353 1791 
Q 353 2603 747 3093 
Q 1141 3584 1784 3584 
Q 2172 3584 2450 3431 
Q 2728 3278 2906 2969 
L 2906 3500 
L 3481 3500 
L 3481 434 
z
" transform="scale(0.015625)"/>
     <path id="DejaVuSans-44" d="M 1259 4147 
L 1259 519 
L 2022 519 
Q 2988 519 3436 956 
Q 3884 1394 3884 2338 
Q 3884 3275 3436 3711 
Q 2988 4147 2022 4147 
L 1259 4147 
z
M 628 4666 
L 1925 4666 
Q 3281 4666 3915 4102 
Q 4550 3538 4550 2338 
Q 4550 1131 3912 565 
Q 3275 0 1925 0 
L 628 0 
L 628 4666 
z
" transform="scale(0.015625)"/>
     <path id="DejaVuSans-51" d="M 2522 4238 
Q 1834 4238 1429 3725 
Q 1025 3213 1025 2328 
Q 1025 1447 1429 934 
Q 1834 422 2522 422 
Q 3209 422 3611 934 
Q 4013 1447 4013 2328 
Q 4013 3213 3611 3725 
Q 3209 4238 2522 4238 
z
M 3406 84 
L 4238 -825 
L 3475 -825 
L 2784 -78 
Q 2681 -84 2626 -87 
Q 2572 -91 2522 -91 
Q 1538 -91 948 567 
Q 359 1225 359 2328 
Q 359 3434 948 4092 
Q 1538 4750 2522 4750 
Q 3503 4750 4090 4092 
Q 4678 3434 4678 2328 
Q 4678 1516 4351 937 
Q 4025 359 3406 84 
z
" transform="scale(0.015625)"/>
     <path id="DejaVuSans-4e" d="M 628 4666 
L 1478 4666 
L 3547 763 
L 3547 4666 
L 4159 4666 
L 4159 0 
L 3309 0 
L 1241 3903 
L 1241 0 
L 628 0 
L 628 4666 
z
" transform="scale(0.015625)"/>
    </defs>
    <use xlink:href="#DejaVuSans-4c"/>
    <use xlink:href="#DejaVuSans-65" x="53.962891"/>
    <use xlink:href="#DejaVuSans-61" x="115.486328"/>
    <use xlink:href="#DejaVuSans-72" x="176.765625"/>
    <use xlink:href="#DejaVuSans-6e" x="216.128906"/>
    <use xlink:href="#DejaVuSans-69" x="279.507812"/>
    <use xlink:href="#DejaVuSans-6e" x="307.291016"/>
    <use xlink:href="#DejaVuSans-67" x="370.669922"/>
    <use xlink:href="#DejaVuSans-20" x="434.146484"/>
    <use xlink:href="#DejaVuSans-70" x="465.933594"/>
    <use xlink:href="#DejaVuSans-72" x="529.410156"/>
    <use xlink:href="#DejaVuSans-6f" x="568.273438"/>
    <use xlink:href="#DejaVuSans-67" x="629.455078"/>
    <use xlink:href="#DejaVuSans-72" x="692.931641"/>
    <use xlink:href="#DejaVuSans-65" x="731.794922"/>
    <use xlink:href="#DejaVuSans-73" x="793.318359"/>
    <use xlink:href="#DejaVuSans-73" x="845.417969"/>
    <use xlink:href="#DejaVuSans-20" x="897.517578"/>
    <use xlink:href="#DejaVuSans-6f" x="929.304688"/>
    <use xlink:href="#DejaVuSans-66" x="990.486328"/>
    <use xlink:href="#DejaVuSans-20" x="1025.691406"/>
    <use xlink:href="#DejaVuSans-44" x="1057.478516"/>
    <use xlink:href="#DejaVuSans-51" x="1134.480469"/>
    <use xlink:href="#DejaVuSans-4e" x="1213.191406"/>
    <use xlink:href="#DejaVuSans-20" x="1287.996094"/>
    <use xlink:href="#DejaVuSans-6c" x="1319.783203"/>
    <use xlink:href="#DejaVuSans-65" x="1347.566406"/>
    <use xlink:href="#DejaVuSans-61" x="1409.089844"/>
    <use xlink:href="#DejaVuSans-72" x="1470.369141"/>
    <use xlink:href="#DejaVuSans-6e" x="1509.732422"/>
    <use xlink:href="#DejaVuSans-65" x="1573.111328"/>
    <use xlink:href="#DejaVuSans-72" x="1634.634766"/>
   </g>
  </g>
 </g>
 <defs>
  <clipPath id="pe25ba0e8d7">
   <rect x="64.175" y="40.92" width="148.66" height="94.42"/>
  </clipPath>
  <clipPath id="p7b73aa8967">
   <rect x="282.14" y="40.92" width="148.66" height="94.42"/>
  </clipPath>
  <clipPath id="p73ee624225">
   <rect x="64.175" y="193.62" width="148.66" height="94.42"/>
  </clipPath>
  <clipPath id="p0d3e1f959d">
   <rect x="282.14" y="193.62" width="148.66" height="94.42"/>
  </clipPath>
 </defs>
</svg>
